<?xml version="1.0" encoding="UTF-8" standalone="no"?><!DOCTYPE svg PUBLIC "-//W3C//DTD SVG 1.1//EN" "http://www.w3.org/Graphics/SVG/1.1/DTD/svg11.dtd"><svg width="100%" height="100%" viewBox="0 0 12273 7528" version="1.1" xmlns="http://www.w3.org/2000/svg" xmlns:xlink="http://www.w3.org/1999/xlink" xml:space="preserve" style="fill-rule:evenodd;clip-rule:evenodd;stroke-linejoin:round;stroke-miterlimit:1.41421;"><g><path d="M1687.22,9.444c2.222,5.556 10,20 18.334,32.223c8.333,12.222 16.111,26.666 18.333,31.666c5.555,15 -11.111,27.778 -33.889,25.556c-17.222,-1.667 -22.222,-5 -32.222,-23.889c-25,-45.556 -31.667,-46.111 -50,-6.667c-48.889,107.778 -46.667,233.889 6.666,387.778c36.667,106.111 45.556,115 82.778,82.222c11.111,-10 21.111,-16.111 22.778,-15c1.111,1.667 3.333,20 4.444,41.111c2.223,42.223 23.889,113.334 45.556,150.556c19.444,33.889 26.667,31.111 22.222,-8.333c-2.222,-17.223 -5,-51.111 -7.222,-75l-3.333,-42.778l15,0c8.333,0 20.555,2.778 26.666,6.111c11.111,6.111 11.667,5 8.889,-20c-2.222,-18.889 -10.555,-36.667 -28.889,-63.333c-28.889,-42.778 -31.111,-50 -12.222,-46.667c10.556,2.222 16.667,-2.222 31.111,-22.222c21.667,-30.556 41.111,-39.445 71.667,-34.445c20.555,3.334 22.778,2.778 22.778,-7.777c0,-6.112 3.889,-20 8.889,-30.556l9.444,-18.889l-25,-30c-36.667,-43.889 -45,-56.667 -93.889,-150c-24.444,-46.667 -57.778,-104.444 -73.333,-128.333c-23.889,-36.111 -31.111,-42.778 -43.889,-42.778c-12.222,0 -14.445,2.222 -11.667,9.444Z" style="fill:#d7d8d8;fill-rule:nonzero;"/><path d="M2367.78,6.667c1.666,3.889 10,9.444 20,12.222c15.555,4.444 16.111,6.111 11.111,17.778c-6.667,14.444 -25,17.777 -43.889,7.777c-9.444,-5.555 -10.556,-3.888 -10.556,17.778c0,13.334 -1.666,36.667 -3.333,51.667c-2.778,22.778 -1.667,30 7.778,41.667l11.667,13.888l8.888,-12.777c10.556,-13.889 38.889,-16.667 55,-5c18.334,13.333 7.778,23.333 -23.333,23.333c-23.333,0 -31.111,2.778 -45,16.111c-25,23.889 -40.555,66.111 -41.667,111.667c0,21.111 1.112,45.555 3.889,53.889c3.889,14.444 6.111,15.555 33.334,15.555c36.666,0 63.333,7.778 79.444,22.778l12.778,12.222l-13.333,16.111c-24.445,28.889 -16.112,65.556 24.444,110.556c22.778,26.667 65,56.111 88.889,63.333c12.222,3.889 12.778,2.778 8.889,-13.889c-2.222,-9.444 -0.556,-38.333 2.778,-64.444c3.888,-25.556 5,-56.111 2.777,-67.778c-3.333,-18.889 -4.444,-19.444 -11.666,-10c-14.445,20.556 -68.334,5 -73.334,-21.111c-1.666,-6.667 2.778,-8.889 18.334,-8.889c35,0 51.111,-25.555 61.111,-96.111c3.333,-27.222 11.666,-35.556 27.778,-29.444c7.777,2.777 7.777,5 0,20c-21.112,40.555 -13.334,105 15.555,125c12.778,8.888 51.111,11.666 56.111,3.888c1.667,-2.777 -3.333,-16.666 -10.555,-31.666c-16.667,-32.222 -18.334,-77.778 -5,-106.111c10,-20.556 26.666,-32.778 36.111,-26.667c6.111,3.889 4.444,39.444 -3.889,76.667c-5.556,23.889 8.333,16.111 28.333,-16.111c15,-23.889 16.667,-32.778 19.445,-84.445c1.666,-31.111 1.666,-57.222 1.111,-57.222c-1.111,0 -9.445,7.222 -17.778,16.667c-9.444,10 -21.111,16.666 -30,16.666l-14.444,0l0,-222.222l-21.667,0l-21.111,0l-3.334,78.889c-2.777,78.889 -12.222,128.333 -29.444,151.111c-7.222,10.556 -7.778,10.556 -19.444,0c-20,-17.778 -23.889,-31.111 -27.223,-94.444c-3.333,-52.778 -6.111,-66.667 -21.111,-98.334l-17.222,-37.222l-64.444,0c-48.889,0 -64.445,1.667 -62.778,6.667Z" style="fill:#d7d8d8;fill-rule:nonzero;"/><path d="M5106.67,6.667c1.111,3.333 9.444,8.889 18.889,12.222c13.888,5.555 16.111,8.333 14.444,23.889c-1.111,10 3.333,30 10,43.889c8.889,20.555 10,27.222 4.444,31.111c-9.444,5.555 -9.444,5.555 -39.444,-3.334c-13.889,-3.888 -44.444,-21.666 -67.778,-38.888c-48.333,-35 -75.555,-44.445 -118.889,-41.112c-25,2.223 -32.777,5.556 -45.555,20c-8.334,9.445 -17.222,26.667 -19.445,37.778c-3.889,21.111 -1.666,32.778 20.556,112.222c12.778,46.112 12.222,61.112 -2.778,96.112c-2.778,6.666 2.778,10.555 26.111,17.777c35,11.111 68.334,38.334 92.222,75c9.445,15 17.223,28.889 17.223,30.556c0,6.667 -19.445,3.889 -30,-4.445c-17.778,-13.333 -25.556,-10 -25.556,9.445c0.556,63.333 90,141.111 175,151.667c43.333,5.555 51.667,1.666 55.556,-29.445c2.222,-14.444 11.111,-71.111 20,-126.111c9.444,-55 18.333,-126.667 20,-159.444c3.333,-55 3.889,-58.889 13.333,-52.778c7.222,4.444 22.222,4.444 58.333,-0.556c44.445,-6.666 49.445,-6.111 69.445,3.334c23.333,11.666 30,8.333 25,-12.223c-1.667,-7.777 -13.889,-18.333 -31.111,-27.777c-28.334,-15.556 -33.334,-22.223 -20,-27.223c10,-3.889 53.333,6.111 68.889,16.111c14.444,9.445 15.555,17.223 3.333,31.112c-10.556,11.666 -10.556,11.111 38.889,20.555c18.333,3.333 46.111,6.111 61.666,6.111c23.889,0 31.667,-2.778 43.889,-14.444c7.778,-8.334 14.445,-17.778 14.445,-22.222c0,-3.889 1.666,-10.556 3.333,-15c2.778,-7.223 -5,-8.334 -51.667,-8.334c-113.888,0.556 -176.111,-39.444 -205.555,-132.778l-9.445,-29.444l-105,0c-78.333,0 -104.444,1.667 -102.777,6.667Zm136.111,46.111c13.333,9.444 23.889,39.444 23.889,67.222c0,15 -2.778,18.333 -29.445,28.889c-45.555,18.889 -50,17.778 -46.666,-17.222c3.333,-38.334 21.111,-87.223 31.666,-87.223c5,0 13.889,3.889 20.556,8.334Z" style="fill:#d7d8d8;fill-rule:nonzero;"/><path d="M9273.89,30.556c-31.111,30 -35,42.222 -20.556,63.333c7.778,10.555 12.778,12.222 30.556,10l20.555,-2.778l4.445,34.445c6.667,56.111 3.889,142.222 -5.556,193.888c-5,26.667 -25.555,100 -45,163.334c-20,63.333 -36.111,117.222 -36.111,119.444c0,2.778 7.778,15 16.667,27.778c9.444,12.778 22.222,40.556 28.889,61.667c10,33.889 11.111,47.222 8.333,106.111c-2.222,36.666 -8.333,97.222 -15,133.889c-12.222,73.333 -14.444,172.222 -5,210.555c9.445,38.334 39.445,46.667 80,23.334c19.445,-11.667 25,-12.778 36.667,-7.223c12.222,6.111 13.889,11.667 17.222,53.889c4.444,56.111 1.111,86.667 -13.333,126.667c-6.111,16.111 -10,30.555 -8.889,31.667c5.555,5.555 43.333,-26.667 59.444,-50.556c33.334,-50.556 46.667,-97.778 78.889,-274.444c33.889,-186.112 61.667,-262.223 115,-318.334l20.556,-21.111l0,-70.555c0,-56.667 -2.778,-78.334 -12.223,-109.445c-17.777,-55 -48.333,-103.889 -95,-150.555c-33.888,-33.889 -40.555,-42.778 -38.888,-56.112c1.666,-13.333 6.111,-17.222 31.111,-26.111c26.111,-9.444 29.444,-12.222 27.777,-25c-1.111,-10.555 -7.777,-17.777 -26.666,-27.222c-30.556,-15 -50,-15.555 -68.889,-0.555c-13.889,11.111 -14.445,11.111 -14.445,0.555c0,-20 50.556,-53.889 90.556,-60.555c20.556,-3.334 21.667,-3.889 18.333,-20c-2.222,-9.445 -12.222,-37.223 -23.333,-61.667c-11.111,-25 -24.444,-59.445 -28.889,-77.222l-9.444,-31.667l-41.667,0l-42.222,0l2.222,21.111c2.778,28.889 -10.556,43.333 -54.444,58.889l-36.112,12.222l0,-38.889c0,-21.666 2.223,-42.777 4.445,-46.666c3.333,-4.445 0.555,-6.111 -8.333,-5.556c-7.223,0.556 -26.112,13.333 -41.667,29.445Z" style="fill:#d7d8d8;fill-rule:nonzero;"/><path d="M2970.56,283.333c-14.445,8.889 -26.112,18.889 -26.112,22.223c0,2.777 11.112,5.555 25,5.555c36.112,0 52.778,17.222 52.778,55c0,32.222 -7.778,39.445 -42.778,39.445c-15,0 -29.444,-5.556 -50,-19.445c-23.333,-15.555 -28.888,-17.778 -31.666,-10.555c-6.667,17.777 -2.778,47.777 11.111,87.777c11.111,32.778 12.778,43.889 7.778,52.778c-6.667,12.778 -13.889,15 -20,5c-2.778,-3.889 -9.445,0.556 -19.445,12.778l-15.555,18.889l-29.445,-29.445c-16.666,-15.555 -31.111,-28.889 -32.222,-28.889c-1.667,0 -3.333,13.889 -3.889,30.556c-0.555,16.667 -10,64.444 -21.111,106.111c-27.778,108.333 -25,143.333 13.333,176.111c23.889,20 35.556,20 28.334,0.556c-14.445,-37.222 -0.556,-101.667 27.777,-127.222c11.112,-10 11.112,-9.445 11.112,53.333c0,35 3.888,135 9.444,222.778c11.111,183.889 6.667,262.777 -15.556,292.777c-11.111,15.556 -12.222,22.778 -12.222,101.667c0,46.667 2.778,101.111 6.667,121.111c22.778,123.334 78.333,210.556 166.667,261.667c18.333,10 34.444,23.889 36.111,30c1.666,6.111 5.555,35 9.444,63.889c11.667,96.111 -2.222,215 -34.444,291.111c-8.889,21.667 -14.445,40 -12.778,41.667c6.667,6.666 78.333,-77.223 95,-111.112c58.333,-118.888 65.555,-203.333 55,-638.333c-4.445,-186.667 -2.778,-247.778 11.111,-327.778c2.778,-16.666 0.556,-23.889 -15.556,-44.444c-25,-32.222 -47.777,-43.333 -121.111,-56.111c-34.444,-6.111 -72.222,-16.111 -84.444,-22.222c-21.111,-11.112 -21.667,-11.667 -13.333,-23.334c42.777,-57.778 43.888,-156.666 3.333,-251.111l-10.556,-24.444l23.889,-35.556c58.334,-86.667 106.667,-288.889 81.111,-337.778c-14.444,-26.666 -26.666,-27.777 -62.777,-5Zm17.222,942.778l13.333,8.333l-12.778,8.889c-7.222,5 -41.111,16.667 -76.111,26.667c-53.333,15 -62.222,16.111 -59.444,8.889c2.222,-5.556 5,-16.111 6.666,-24.445c7.223,-36.666 87.778,-54.444 128.334,-28.333Z" style="fill:#d7d8d8;fill-rule:nonzero;"/><path d="M9196.67,289.444c-25,7.223 -28.334,13.889 -31.111,61.667c-2.778,46.667 -1.112,49.445 25.555,37.222c18.333,-8.333 30,-34.444 32.222,-71.111c1.667,-32.778 -0.555,-35.555 -26.666,-27.778Z" style="fill:#d7d8d8;fill-rule:nonzero;"/><path d="M4750.56,460c-6.667,12.778 -8.889,13.333 -63.334,11.111l-56.666,-1.667l-3.889,52.778c-5,71.667 3.889,189.445 23.333,311.667c9.444,56.111 16.667,110 16.667,120c0,26.667 5,35 28.889,44.444c27.222,11.111 56.666,45.556 71.111,83.334c6.111,16.666 17.222,64.444 25,106.111c17.222,95.555 24.444,126.111 34.444,152.222l8.333,21.111l50.556,0c58.889,0 93.333,12.778 107.222,39.445c8.889,18.333 8.889,18.333 -27.778,24.444c-11.666,1.667 -27.777,10 -35,17.222c-11.666,11.667 -13.888,17.778 -11.111,35.556c3.889,30.555 20.556,50.555 63.889,79.444c20.556,13.334 41.667,29.445 47.222,35.556c9.445,10.555 8.889,11.666 -11.666,25c-62.222,41.666 -106.111,103.889 -181.667,258.889c-28.889,59.444 -64.444,125.555 -78.889,147.222c-30.555,45.555 -28.889,51.667 15.556,66.667c37.222,12.222 47.778,23.888 35,37.777c-11.667,12.778 -11.667,28.889 -1.111,63.889l8.889,27.778l-38.334,0.556c-50.555,0.555 -88.889,14.444 -110.555,38.333c-8.889,10.555 -16.667,21.111 -16.667,23.889c0,2.778 11.111,3.333 25,2.222c21.667,-2.778 26.111,-1.111 41.111,13.333c21.111,21.667 25.556,51.667 17.778,123.889c-7.222,64.445 -7.778,116.667 -1.667,126.111c2.222,3.334 18.889,11.667 36.667,18.334c21.111,8.333 42.222,22.222 60.555,39.444l27.778,26.667l-3.333,65.555c-3.889,77.223 -13.889,136.667 -40.556,246.111c-18.333,75.556 -18.889,80.556 -9.444,87.223c18.333,13.889 55.555,8.333 121.667,-17.778c34.444,-13.889 66.666,-25 71.666,-25c6.111,0 7.778,-3.889 5.556,-12.778c-12.222,-52.222 -15,-87.222 -17.778,-231.667l-2.778,-163.888l21.111,-7.223c12.223,-3.889 31.111,-10 42.223,-13.889c20,-6.111 20,-6.111 23.888,-42.222c3.889,-37.778 -1.666,-114.444 -16.666,-242.222c-4.445,-39.444 -8.334,-95 -8.334,-123.333l0,-51.111l23.889,-7.223c12.778,-3.889 50.556,-7.222 84.445,-7.222c55.555,0 63.889,1.111 89.444,15c34.445,18.333 70,57.222 78.889,86.111c10,33.334 13.889,66.667 10,82.222c-3.333,12.223 -6.667,13.889 -27.778,13.889c-16.111,0 -28.889,3.889 -38.889,11.667c-15,11.667 -20,32.778 -7.222,32.778c11.667,0 67.222,-27.778 80.556,-40.556c43.889,-40.555 49.444,-113.889 18.333,-231.666c-10.555,-38.334 -21.111,-73.889 -23.889,-78.889c-7.222,-15 -34.444,-26.667 -78.333,-33.889c-40,-6.667 -40,-6.667 -41.667,-25.556c-1.111,-10 3.889,-71.666 10.556,-136.111c7.778,-73.889 12.778,-154.444 12.778,-217.778l0.555,-101.111l27.778,-6.111c42.778,-9.444 119.444,-51.667 169.444,-93.333c1.111,-1.111 -4.444,-7.778 -12.777,-14.445c-7.778,-6.666 -17.223,-20 -20.556,-28.889c-5.556,-13.888 -5,-17.777 2.778,-22.222c33.333,-20 60.555,-40 97.222,-72.778c84.444,-75 133.889,-97.222 193.333,-85.555c41.667,7.778 44.445,11.111 20.556,25.555c-28.889,17.223 -66.667,55 -92.222,92.223c-11.667,17.222 -21.667,33.333 -21.667,35.555c0,1.667 9.444,12.778 21.111,23.889c37.778,37.222 53.333,85 62.222,197.222c11.111,137.778 16.667,178.889 27.778,215c11.667,38.334 39.445,82.778 51.667,82.778c4.444,0 12.778,-10.555 18.889,-23.889c27.222,-55 35.555,-107.778 46.111,-301.111c8.333,-152.778 28.889,-217.778 82.222,-255.555l23.889,-16.667l-3.333,-133.333c-6.112,-246.667 -28.889,-343.889 -97.778,-416.667c-26.111,-27.222 -62.778,-52.778 -68.334,-46.667c-1.666,1.111 -5.555,20 -8.888,41.111c-7.223,46.111 -17.223,63.889 -36.112,63.889l-13.333,0l13.333,-29.444c18.334,-40 33.334,-128.889 25.556,-150c-10,-26.667 -20,-14.445 -23.333,28.333c-5,67.222 -32.778,81.111 -75,37.222c-38.889,-40 -38.334,-65.555 1.666,-110c15,-16.666 17.223,-22.777 12.778,-31.111c-10,-18.889 -21.111,-17.778 -38.889,3.889c-19.444,23.333 -33.333,64.445 -33.333,97.778c0,20.555 16.111,97.778 25,120.555c2.778,7.778 -2.778,10 -40,12.778c-23.889,2.222 -51.111,6.667 -60.556,9.445c-17.777,5.555 -17.777,6.111 -20,47.777c-2.222,42.223 -2.222,42.223 -27.222,65c-15,13.334 -42.778,29.445 -66.667,38.889c-76.666,30.556 -103.888,56.111 -108.888,100l-2.778,23.334l62.778,0.555c35,0 87.222,3.889 116.111,8.889c28.889,5.556 61.111,11.111 71.111,12.778l17.778,2.778l-20,31.666c-27.223,43.889 -66.112,79.445 -127.223,115.556l-52.222,30.555l-25.555,-20c-15.556,-11.666 -41.667,-23.888 -65.556,-31.111c-79.444,-22.777 -78.889,-22.777 -78.333,-46.111l1.111,-21.666l-13.334,16.666c-8.333,10.556 -21.666,18.889 -36.666,22.778c-13.334,3.333 -33.334,8.889 -44.445,11.667l-21.111,5l1.667,-17.223c1.111,-15.555 -0.556,-17.777 -13.889,-19.444c-7.778,-1.111 -36.111,3.333 -62.778,9.444c-26.666,6.667 -58.333,11.667 -71.666,11.667l-22.778,0l-6.667,-33.889c-7.778,-40.555 -13.333,-47.778 -42.222,-55.555c-12.778,-3.334 -27.778,-9.445 -33.333,-13.334c-9.445,-6.666 -9.445,-7.222 2.222,-10c11.111,-2.777 11.666,-5 7.222,-49.444c-2.778,-25.556 -4.444,-54.445 -3.889,-65c1.111,-23.333 11.667,-50.556 20.556,-51.111c21.111,-2.778 108.333,2.778 119.444,6.666c18.889,7.778 24.445,0 23.889,-35.555c0,-30 -12.222,-61.111 -39.444,-101.111c-6.667,-9.445 -11.667,-21.111 -11.667,-26.667c0,-7.778 1.667,-8.333 10.555,-2.778c8.889,5 15,4.445 33.889,-3.889c23.334,-10.555 23.889,-10.555 31.111,0c10.556,13.889 9.445,23.334 -3.333,52.223c-6.111,13.333 -11.111,28.889 -11.111,35c0,18.889 31.111,26.666 106.111,26.666l67.222,0l-2.222,-51.666c-3.333,-81.111 -26.667,-115 -80,-116.667l-27.222,-1.111l-1.667,27.778c-1.666,34.444 -5.555,52.777 -11.111,52.777c-2.222,0 -3.333,-8.333 -2.222,-18.888c3.333,-27.778 -6.667,-41.112 -35,-48.334c-13.889,-3.333 -25,-7.778 -25,-8.889c0,-1.666 6.111,-7.777 13.889,-13.889c18.889,-15 18.333,-37.777 -1.667,-61.111c-25.555,-29.444 -34.444,-45 -34.444,-58.333c0,-17.778 -15,-16.667 -44.445,3.333c-26.111,17.778 -47.222,45.556 -75.555,102.223c-17.778,35 -53.889,81.666 -63.334,81.666c-2.222,0 -5.555,-41.666 -6.666,-93.333c-1.667,-64.445 -5.556,-98.889 -11.111,-112.222l-8.334,-19.445l-6.666,12.778Z" style="fill:#d7d8d8;fill-rule:nonzero;"/><path d="M10208.3,493.889c-22.222,5.555 -48.333,19.444 -58.889,31.667c-27.777,31.666 -45.555,98.333 -52.222,191.111c-5,81.111 -13.889,155 -22.778,193.333l-7.777,35l27.777,45.556c35.556,58.888 48.334,105.555 38.889,146.666c-3.333,16.111 -11.111,35 -16.666,41.667c-8.889,11.111 -11.111,11.667 -23.334,5c-7.777,-3.889 -17.777,-14.445 -23.333,-23.333c-10.556,-17.778 -35,-32.778 -53.333,-32.778c-9.445,0 -11.111,3.333 -11.111,24.444c0,13.334 -5,40 -10.556,59.445c-15.556,51.666 -18.333,68.333 -14.444,89.444c2.777,15.556 9.444,21.667 43.888,42.222c51.667,30 69.445,30.556 90.556,2.778l15.556,-20.555l2.777,22.222c1.667,11.666 0.556,45 -2.222,72.778c-7.222,75.555 7.778,100 61.111,103.333l20,1.111l-0.555,-50c-1.111,-71.111 11.111,-141.667 51.111,-292.778l34.444,-132.222l17.222,0c23.889,0 72.223,-25.556 88.334,-46.667c22.778,-30 42.222,-79.444 51.111,-130c15.555,-89.444 0.555,-225 -35.556,-317.777c-12.777,-33.334 -18.333,-41.667 -27.222,-40.556c-73.889,9.444 -71.667,9.444 -108.889,-8.889c-36.666,-17.778 -45,-18.889 -73.889,-12.222Z" style="fill:#d7d8d8;fill-rule:nonzero;"/><path d="M511.111,521.667c0,6.666 -5,23.889 -11.667,37.777c-11.111,23.889 -10.555,45 0.556,37.778c2.778,-1.666 24.444,-7.222 48.333,-11.666c42.223,-7.778 68.334,-19.445 68.334,-30c0,-3.334 -2.778,-5.556 -6.667,-5.556c-3.333,0 -18.333,-7.778 -32.778,-16.667c-14.444,-9.444 -35,-18.889 -46.111,-20.555c-17.778,-2.778 -20,-1.667 -20,8.889Z" style="fill:#d7d8d8;fill-rule:nonzero;"/><path d="M3078.33,562.778c-12.222,15 -17.777,67.222 -13.889,130c4.445,73.333 -0.555,78.889 -34.444,38.333c-11.111,-13.333 -26.111,-27.222 -33.333,-30.555c-12.223,-5.556 -13.334,-4.445 -13.334,9.444c0,18.333 17.223,56.667 29.445,67.222c7.778,6.111 11.111,6.111 17.778,0.556c6.666,-5.556 11.666,-5.556 22.777,-0.556c29.445,13.334 35.556,8.889 35.556,-23.889c0,-16.666 2.222,-31.666 5,-33.889c2.778,-1.666 11.111,7.223 17.778,19.445c7.222,12.222 14.444,22.222 16.666,22.222c11.111,0 -6.666,-131.111 -23.333,-175.555c-11.667,-31.112 -16.111,-35 -26.667,-22.778Z" style="fill:#d7d8d8;fill-rule:nonzero;"/><path d="M2196.67,615c-14.445,86.111 -38.889,147.778 -107.223,270.556l-55,99.444l41.112,81.111c33.333,66.111 42.222,88.889 47.222,122.778c6.111,38.333 3.889,116.111 -3.889,155l-3.333,15.555l81.666,15.556c106.667,20 138.889,16.111 197.778,-25.556c18.333,-12.777 25.556,-47.777 32.222,-158.888c16.667,-270 -54.444,-485.556 -190.555,-576.112c-16.667,-11.111 -31.667,-20 -33.334,-20c-1.666,0 -4.444,9.445 -6.666,20.556Z" style="fill:#d7d8d8;fill-rule:nonzero;"/><path d="M6253.89,610.556c-4.445,21.666 -28.889,37.222 -70.556,45c-71.666,13.888 -94.444,30 -94.444,66.666c0,11.111 -7.778,66.111 -17.222,122.778c-10,60 -18.334,132.778 -20,175.556l-3.334,73.888l28.334,0c39.444,0 111.666,10.556 132.777,19.445c10,4.444 24.445,13.889 32.223,21.667c13.333,13.888 13.889,15.555 13.889,96.666l0,82.222l-33.334,6.667c-192.222,35.556 -296.666,250.556 -272.778,560.556c16.667,221.111 86.667,460 177.223,609.444c12.777,20.556 23.333,40 23.333,42.778c0,8.333 -23.333,43.333 -78.333,117.222c-86.111,116.111 -111.667,172.778 -122.223,270c-7.777,73.889 -2.777,91.111 32.778,108.889c14.445,7.222 30.556,18.333 36.667,25c11.667,12.778 11.111,22.222 -5,95c-7.222,33.333 -8.889,59.444 -6.111,127.778c3.333,94.444 6.111,112.222 56.111,302.778c29.444,112.777 32.222,127.222 32.778,186.666c0.555,54.445 2.222,66.667 10.555,76.111c27.778,30.556 13.334,140 -32.222,247.778c-3.889,9.445 -3.333,10 6.111,6.111c5.556,-2.222 17.222,-5.555 25,-6.666l15,-2.778l1.667,50.555c1.111,27.223 5,52.778 8.333,56.111c15,15 54.445,-29.444 74.445,-82.222c20.555,-53.889 23.888,-97.222 24.444,-309.444c0.556,-175 2.222,-211.111 10.556,-243.334c10.555,-42.777 31.111,-92.777 37.222,-92.777c6.111,0 19.444,36.111 28.333,75c5,23.333 6.667,62.777 5,133.333c-5.555,215 -3.333,268.333 10.556,315.556c7.222,23.888 15.555,44.444 17.777,46.111c6.667,3.889 40.556,-32.778 52.223,-56.667c23.333,-50 26.111,-71.667 30.555,-268.889c4.445,-200 7.778,-227.778 32.778,-276.667c15,-28.888 43.333,-55 52.778,-48.333c34.444,25.556 40,27.778 67.222,26.667c15,-0.556 47.778,-8.334 71.667,-17.222l43.889,-16.112l10,-41.111c10,-39.444 28.333,-78.889 94.444,-203.889c27.778,-53.333 30,-60 30,-95.555c0,-36.111 -1.111,-39.445 -19.444,-58.889c-18.334,-18.889 -77.223,-52.222 -92.778,-52.222c-8.889,0 -8.889,-2.778 -0.556,-16.111c8.889,-15 -3.889,-30 -22.222,-26.667c-21.111,3.889 -5.556,-7.222 39.444,-29.444c22.223,-10.556 40.556,-23.334 41.667,-28.889c2.222,-13.334 -32.222,-22.778 -71.667,-20c-45,3.333 -59.444,18.333 -100.555,104.444c-42.778,90.556 -71.667,120 -126.667,130.556l-19.444,3.333l0,-68.333c0,-82.223 -7.222,-109.445 -63.334,-234.445c-52.222,-116.111 -61.111,-152.222 -51.111,-206.666c5,-27.778 36.667,-102.223 43.334,-102.223c1.111,0 8.333,3.889 15.555,8.889c24.445,16.111 66.111,8.334 133.334,-24.444l58.888,-28.889l-3.333,-40c-11.111,-130 -15,-163.333 -25.555,-196.111l-11.112,-36.111l-60.555,0c-33.333,0 -67.222,2.777 -75,5.555l-15,5.556l12.778,-20.556c7.222,-11.666 15.555,-26.111 19.444,-32.222c13.333,-21.667 29.445,-86.111 32.778,-131.667c6.111,-77.777 -3.889,-146.111 -53.333,-358.889c-30,-130.555 -41.112,-195.555 -46.667,-270.555l-3.889,-50.556l50,-48.889c27.222,-26.666 56.111,-60.555 63.889,-74.444l13.889,-26.111l-13.334,-39.445c-7.222,-21.666 -21.666,-93.333 -32.777,-160c-27.223,-165 -46.111,-221.666 -88.889,-268.888c-18.334,-20.556 -53.334,-41.667 -81.111,-48.334c-12.778,-3.333 -15,-1.666 -17.778,13.334Z" style="fill:#d7d8d8;fill-rule:nonzero;"/><path d="M461.667,664.444c-35,40 -64.445,95.556 -76.111,144.445c-6.667,30 -8.334,56.667 -6.112,121.667c1.112,45.555 4.445,87.222 6.112,92.222c3.333,7.222 8.888,8.889 24.444,6.666c17.778,-2.222 40.556,2.778 73.889,17.223c7.778,3.333 9.444,-2.778 11.667,-42.778c3.888,-56.667 18.333,-93.889 42.777,-106.111c23.334,-12.222 35.556,-11.667 31.111,1.666c-4.444,14.445 8.889,44.445 27.223,61.112c7.777,7.777 14.444,17.222 14.444,21.666c0,6.667 7.778,7.222 46.111,4.445c68.334,-6.111 71.667,-6.111 90.556,-1.667c16.666,4.444 17.778,3.333 30,-25c25,-58.889 20,-120.556 -16.667,-202.222l-16.667,-38.334l-54.444,-2.222c-29.444,-1.111 -67.222,-2.222 -83.333,-2.778c-15.556,-0.555 -28.889,-1.666 -28.889,-2.222c0,-1.111 5,-8.889 11.666,-16.666l11.667,-15l-27.778,-2.778c-21.666,-2.222 -32.222,-7.222 -50.555,-23.889c-12.222,-11.111 -25,-20.556 -27.778,-20.556c-2.778,0 -17.778,13.889 -33.333,31.111Z" style="fill:#d7d8d8;fill-rule:nonzero;"/><path d="M6650.56,675c-56.112,22.778 -103.334,42.778 -105,43.889c-8.334,8.333 -17.223,86.667 -17.223,150.555c-0.555,85 6.667,138.334 41.111,313.889c13.889,71.667 28.889,160.556 32.778,197.223l6.667,66.666l10,-18.333c6.111,-11.667 11.111,-40 14.444,-75c4.445,-58.889 12.223,-84.445 26.667,-90c10.556,-3.889 15.556,3.333 25.556,38.889c15.555,52.778 20,93.889 20,174.444c0,81.667 -13.889,198.889 -30.556,261.667c-4.444,16.667 -6.667,31.111 -5.556,32.222c5,5 50.556,-15.555 69.445,-31.667c23.333,-18.888 46.111,-58.333 59.444,-103.888c8.334,-27.778 9.445,-57.778 10,-191.112c0.556,-177.222 1.111,-194.444 7.223,-204.444c2.777,-3.889 20.555,-9.444 40.555,-12.778c19.445,-2.778 46.111,-10.555 59.445,-16.666l23.333,-11.667l0,-36.667c0,-35 -3.889,-53.333 -41.111,-192.222c-7.778,-30 -14.445,-61.667 -14.445,-70c0,-17.222 12.223,-33.333 25.556,-33.333c4.444,0 7.778,-1.111 7.778,-2.223c0,-11.111 -108.889,-173.333 -132.778,-198.333l-31.111,-32.222l-102.222,41.111Z" style="fill:#d7d8d8;fill-rule:nonzero;"/><path d="M1933.33,644.444c0,2.778 4.445,7.778 10,10.556c5,2.778 13.889,17.778 19.445,32.778c12.778,37.778 41.666,77.778 70.555,100c23.334,17.778 24.445,18.333 28.334,7.778c2.222,-6.112 12.222,-17.223 21.111,-23.889c18.889,-13.889 22.222,-25.556 8.889,-30.556c-5,-2.222 -12.778,2.222 -18.889,9.445l-10.556,13.333l-5.555,-13.889c-2.778,-7.778 -7.223,-27.778 -9.445,-44.444c-4.444,-32.778 -17.222,-66.667 -25.555,-66.667c-2.778,0 -6.667,7.222 -8.334,16.111c-2.222,8.889 -9.444,22.222 -16.666,28.889l-13.334,12.222l0,-12.222c0,-14.445 -28.333,-45 -41.111,-45c-5,0 -8.889,2.222 -8.889,5.555Z" style="fill:#d7d8d8;fill-rule:nonzero;"/><path d="M1630.56,787.222c-7.778,26.111 -35.556,88.334 -61.112,137.222c-40,77.223 -69.444,146.667 -69.444,163.334c0,2.778 15.556,6.666 35,8.889c18.889,1.666 45.556,8.889 59.444,16.111c23.334,12.222 25,14.444 26.667,37.778c2.778,33.888 -6.667,61.111 -36.111,105.555l-25.556,38.333l-60,0c-59.444,0 -60,0 -67.777,15c-31.667,58.889 -37.223,72.223 -37.223,90.556c0,23.889 1.112,24.444 75,47.222c127.778,38.889 156.112,75 121.667,155.556c-27.778,65 -27.222,81.111 1.111,100c12.222,7.778 13.334,7.778 16.111,-3.889c1.111,-7.222 3.334,-20 3.889,-28.889c3.334,-36.111 14.445,-18.889 31.667,50.556c10,38.888 23.889,84.444 31.667,100c13.888,29.444 36.111,51.666 50,51.666c11.666,0 9.444,-51.666 -3.334,-93.333c-6.111,-19.445 -11.111,-43.889 -11.111,-53.889c0,-18.333 0.556,-18.889 49.445,-34.444l49.444,-16.112l8.889,20c10,23.334 45,60.556 63.333,67.223c7.778,3.333 17.222,2.777 23.889,-0.556c13.889,-7.778 13.889,-45.555 -0.555,-141.667c-6.112,-40 -10.556,-86.111 -10.556,-102.777l0.556,-30.556l12.777,27.778c7.223,15 17.223,50 22.223,77.778c22.222,120.555 26.666,140.555 37.222,164.444c11.111,26.667 40.555,60 46.666,53.333c1.667,-1.666 -2.777,-57.777 -11.111,-124.444c-25,-210 -50,-493.889 -44.444,-501.111c5,-6.111 14.444,36.111 19.444,87.778c6.667,74.444 12.778,95.555 30.556,113.889c23.889,23.333 45,17.222 63.333,-18.889c13.889,-27.223 14.445,-67.778 2.222,-154.445c-7.777,-51.666 -8.333,-68.889 -2.777,-91.666c3.333,-15.556 4.444,-30 1.666,-32.778c-6.666,-6.667 -60.555,-15.556 -96.111,-15.556c-30,0 -102.778,7.778 -131.111,13.889c-11.667,2.778 -12.778,1.111 -12.778,-20.555c0,-43.334 -21.111,-127.223 -43.333,-173.334c-23.333,-48.889 -66.667,-100.555 -112.222,-133.889c-14.445,-10.555 -27.778,-19.444 -29.445,-19.444c-1.111,0 -9.444,21.667 -17.777,48.333Z" style="fill:#d7d8d8;fill-rule:nonzero;"/><path d="M7070.56,950.556c-8.889,5 -9.445,11.666 -6.112,67.777c5.556,100 -12.222,208.334 -48.888,297.223c-13.334,32.222 -15.556,41.666 -10,48.333c8.888,11.111 41.111,19.444 73.333,19.444c23.889,0 26.111,-1.111 28.889,-15.555c8.889,-42.222 14.444,-104.445 20,-221.667c2.778,-70.555 8.333,-141.667 11.111,-157.222c8.889,-45.556 9.444,-44.445 -26.111,-44.445c-17.778,0 -36.667,2.778 -42.222,6.112Z" style="fill:#d7d8d8;fill-rule:nonzero;"/><path d="M7247.78,1004.44c3.333,21.112 2.222,24.445 -16.111,41.112c-10.556,10 -26.667,23.888 -35.556,30.555l-15.555,12.778l13.333,11.111c19.444,16.667 53.889,15 85,-5c13.889,-8.889 26.667,-18.889 28.889,-21.667c5,-8.889 -7.222,-60.555 -17.778,-73.333c-5,-6.111 -17.778,-12.778 -27.778,-14.444l-18.333,-3.889l3.889,22.777Z" style="fill:#d7d8d8;fill-rule:nonzero;"/><path d="M472.222,1070.56c0,2.777 5,25 11.111,48.888c13.334,52.778 13.889,79.445 2.223,144.445c-13.889,77.222 -17.223,77.778 -37.778,2.778c-5,-17.223 -14.445,-36.667 -22.222,-43.889l-13.889,-12.778l-16.111,11.667c-26.667,18.889 -70.556,70 -97.778,113.333c-43.889,70.556 -60.556,142.778 -45.556,198.333c4.445,16.667 7.222,31.111 6.667,32.223c-1.111,0.555 -9.445,-1.667 -19.445,-5c-18.333,-6.667 -53.333,-2.778 -58.888,6.111c-1.667,2.777 -11.667,43.333 -22.223,90c-30,131.111 -59.444,178.333 -127.222,203.889c-16.111,5.555 -28.889,14.444 -30,19.444c-2.222,11.667 25,143.889 60,293.333c40,168.889 86.667,340.556 204.445,754.445c57.777,203.333 113.333,401.111 123.888,440c21.112,81.111 21.667,81.666 63.889,52.778c58.334,-38.889 65,-90 25.556,-201.112c-58.333,-163.888 -67.222,-191.666 -73.333,-235.555c-7.778,-52.222 -1.667,-105 16.111,-138.889l10,-18.889l17.222,43.889c9.444,23.889 29.444,85.556 45,136.667c42.778,139.444 65.555,192.222 113.333,267.222c23.334,37.222 28.889,42.222 33.334,33.889c7.777,-13.889 0.555,-205 -10,-270.556c-8.334,-50 -8.334,-55.555 0,-68.333c13.888,-21.111 50.555,-45.556 112.222,-75c30.555,-14.445 57.222,-28.333 58.889,-31.111c3.889,-7.222 -17.223,-174.445 -27.223,-211.667c-5,-18.889 -13.333,-36.667 -18.333,-39.444c-5,-2.778 -41.111,-6.111 -81.111,-7.223c-39.444,-1.111 -76.667,-4.444 -81.667,-7.777c-8.333,-4.445 -7.777,-7.223 7.223,-30c42.222,-62.778 42.222,-125 0,-290c-37.223,-146.111 -45,-190 -45,-261.111c0,-73.334 13.888,-142.778 26.111,-130.556c3.889,3.889 12.222,25.556 18.333,48.333c17.222,63.889 54.444,89.445 66.111,45.556c13.889,-49.445 8.333,-78.889 -40.555,-205c-23.889,-61.111 -31.112,-100.556 -19.445,-107.778c4.445,-2.778 19.445,-5 33.333,-5c26.667,0 51.667,12.778 83.334,42.222c19.444,18.334 23.889,11.111 7.778,-13.889c-28.334,-42.777 -32.223,-63.333 -31.112,-160.555l0.556,-90l-15,-6.111c-8.889,-3.334 -23.333,-4.445 -33.333,-3.334c-16.667,2.778 -17.778,1.667 -23.334,-21.111c-8.889,-35 -7.777,-112.777 2.223,-146.111l8.888,-29.444l-49.444,-56.667c-42.222,-48.333 -69.444,-74.444 -110.556,-105.555c-4.444,-3.334 -7.222,-3.334 -7.222,0Z" style="fill:#d7d8d8;fill-rule:nonzero;"/><path d="M7653.33,1102.22c-12.222,48.889 62.778,93.334 113.334,67.222c21.666,-11.111 21.111,-17.222 -2.223,-25c-10.555,-3.333 -28.888,-13.333 -41.111,-21.666c-24.444,-17.778 -53.333,-33.889 -61.111,-33.889c-3.333,0 -7.222,6.111 -8.889,13.333Z" style="fill:#d7d8d8;fill-rule:nonzero;"/><path d="M7732.22,1282.78c-14.444,11.666 -14.444,12.778 -7.222,33.889c11.667,32.777 18.889,76.666 27.778,175c5,48.889 12.778,103.889 17.222,121.666c7.778,30.556 27.222,75.556 32.222,75.556c1.111,0 6.667,-19.445 11.667,-42.778c5.555,-23.333 24.444,-91.111 42.222,-150.555c17.778,-59.445 36.111,-128.334 41.111,-153.334c5,-24.444 9.445,-48.889 10.556,-53.333c1.111,-6.667 -5.556,-8.333 -37.778,-8.889c-21.667,-0.556 -58.333,-2.222 -81.111,-5c-37.778,-3.333 -43.333,-2.778 -56.667,7.778Z" style="fill:#d7d8d8;fill-rule:nonzero;"/><path d="M753.333,1298.33c-2.222,2.778 -23.889,5.556 -48.333,7.223c-44.444,2.777 -60,11.666 -29.444,16.666c12.777,2.222 18.888,8.334 30,31.111c18.333,37.778 26.666,46.667 42.222,46.667c13.333,0 13.333,-1.111 13.333,-52.778c0,-53.333 -0.555,-56.111 -7.778,-48.889Z" style="fill:#d7d8d8;fill-rule:nonzero;"/><path d="M5522.22,1321.67c-37.222,11.666 -66.666,35.555 -66.666,55.555c0,6.111 7.777,7.222 40,5c34.444,-2.778 41.666,-5 52.777,-17.778c7.223,-8.333 12.778,-22.222 12.778,-31.666c0,-17.222 -8.889,-20 -38.889,-11.111Z" style="fill:#d7d8d8;fill-rule:nonzero;"/><path d="M8831.11,1400.56c-70.555,82.222 -120,216.111 -150.555,410.555c-15,97.222 -36.112,285.556 -31.667,289.445c10,9.444 164.444,55 201.667,59.444c52.777,6.667 61.111,2.778 59.444,-28.333l-1.667,-23.334l22.223,0.556c12.222,0.555 40,7.778 61.111,16.111c30.555,11.667 51.111,16.111 95.555,18.333l56.111,2.778l3.889,-32.222c5.556,-43.333 -4.444,-97.778 -25.555,-141.667c-13.889,-27.222 -32.778,-51.111 -77.778,-96.111l-60,-60l18.889,-18.889c11.111,-11.666 20.555,-27.222 22.778,-39.444c6.111,-33.334 -1.112,-112.778 -17.223,-177.222c-12.222,-50.556 -30.555,-145.556 -30.555,-159.445c0,-5.555 -79.445,-37.222 -103.889,-41.111c-21.111,-3.333 -23.333,-2.222 -42.778,20.556Z" style="fill:#d7d8d8;fill-rule:nonzero;"/><path d="M1000,1436.11c-3.889,11.667 -21.111,33.889 -40.556,52.778c-18.333,18.333 -32.777,33.889 -31.111,35.555c1.111,1.112 12.223,7.223 25,13.334c26.667,13.889 54.445,43.333 66.111,71.666c7.223,16.667 7.778,26.112 2.778,47.223c-8.333,39.444 -22.778,65 -68.333,119.444c-22.222,27.222 -46.111,57.778 -52.778,68.889c-19.444,31.667 -28.889,84.444 -28.889,160.556c0,115 20,209.444 89.445,427.777c73.333,230.556 105,359.445 105,428.334l0,21.666l36.111,0c43.889,0 70.555,10 98.889,37.778c38.889,37.222 60.555,94.445 79.444,208.889c5,32.222 11.111,58.889 13.333,58.889c1.667,0 9.445,-13.889 16.667,-31.111c15.556,-38.334 38.889,-65.556 68.889,-81.667c31.667,-16.667 102.778,-16.111 182.778,1.667c32.778,7.222 59.444,15 59.444,17.222c0,2.222 -13.889,24.444 -31.111,49.444c-16.667,25 -30,46.667 -28.333,47.778c1.666,1.667 66.111,-21.111 143.333,-50c77.778,-28.333 170.556,-61.666 207.222,-73.333c59.445,-18.889 64.445,-21.667 55.556,-28.333c-10,-7.778 -10,-8.334 0,-16.112c6.111,-4.444 13.889,-7.777 17.778,-7.777c12.222,0 35.555,-23.334 35.555,-35c0,-6.667 -13.889,-32.778 -30.555,-58.334c-42.778,-66.111 -79.445,-144.444 -122.223,-262.222c-73.888,-203.889 -105,-265.555 -177.222,-352.222c-26.666,-31.111 -26.666,-37.778 -2.222,-95c8.889,-21.667 17.778,-52.222 19.444,-68.333c2.778,-27.223 2.223,-28.889 -8.888,-28.889c-17.778,0 -43.889,-15 -47.778,-27.778c-5,-15 -29.445,-14.445 -53.334,1.667c-10.555,6.666 -29.444,28.333 -42.222,48.333c-13.333,20 -30.555,42.222 -38.333,48.889l-15,13.333l-13.333,-32.778c-7.223,-17.777 -29.445,-85.555 -49.445,-150c-42.222,-139.444 -63.889,-192.777 -98.889,-245.555c-43.889,-66.111 -102.778,-106.667 -177.778,-123.334l-32.777,-7.222l3.333,-51.666c3.889,-63.334 -1.667,-84.445 -27.222,-107.223c-18.334,-16.111 -30.556,-23.889 -81.111,-54.444l-20,-12.778l-6.667,20Zm622.222,800c0,20.556 -14.444,36.667 -43.889,50c-62.777,28.333 -69.444,33.333 -78.333,58.889c-7.222,21.111 -10.556,24.444 -25,25c-9.444,0.556 -25,2.778 -34.444,5c-18.334,3.889 -18.334,3.889 -18.334,-16.111c0,-17.222 1.667,-20.556 10.556,-18.889c12.222,1.667 59.444,-53.889 65,-76.667c2.778,-11.666 6.666,-13.333 29.444,-13.333c13.889,0 35.556,-5 47.778,-10.556c27.222,-13.333 47.222,-14.444 47.222,-3.333Zm-42.222,290c-1.111,5.556 -7.222,47.222 -13.333,93.333c-15,103.889 -35,202.223 -53.334,263.889c-18.889,62.223 -47.222,133.334 -52.777,133.334c-7.223,0 -25,-38.889 -32.778,-71.667c-10.556,-44.444 -3.889,-124.444 15.555,-197.778c8.889,-33.889 25,-92.222 36.111,-130.555c11.112,-38.334 21.112,-76.111 23.334,-85c2.778,-14.445 3.889,-15 41.111,-15c33.889,0 38.333,1.111 36.111,9.444Z" style="fill:#d7d8d8;fill-rule:nonzero;"/><path d="M3907.22,1482.78c-38.889,10 -79.444,47.222 -79.444,72.778c0,7.777 5,8.888 32.778,6.666l32.777,-2.222l36.667,33.889c36.667,34.444 50,39.444 70,27.222c8.889,-5.555 13.333,-5.555 22.778,0c6.666,3.889 13.333,5.556 15,3.889c2.222,-2.222 3.889,-21.667 3.889,-43.889c0,-35 -1.667,-42.778 -15,-60c-24.445,-32.222 -76.667,-48.889 -119.445,-38.333Z" style="fill:#d7d8d8;fill-rule:nonzero;"/><path d="M2277.78,1515c0,37.222 15,132.222 26.111,165.556c12.222,37.222 22.778,52.777 36.111,52.777c10,0 11.111,-2.777 8.333,-20.555c-2.222,-11.667 -10.555,-27.778 -21.111,-38.334c-16.666,-17.222 -18.333,-22.222 -27.778,-97.777c-5.555,-43.889 -10.555,-81.111 -10.555,-83.889c0,-2.222 -2.222,-3.889 -5.556,-3.889c-2.777,0 -5.555,11.667 -5.555,26.111Z" style="fill:#d7d8d8;fill-rule:nonzero;"/><path d="M4218.33,1533.33c-20.555,12.223 -22.222,18.889 -25.555,78.889c-3.334,68.334 -21.111,83.889 -67.778,59.445c-51.111,-26.667 -81.111,-31.111 -88.333,-12.778c-1.667,4.444 5,15.555 16.666,26.111c31.111,28.889 31.111,46.667 -2.777,110.556c-27.223,51.666 -32.223,70.555 -25,90c5,13.333 13.333,10.555 13.333,-3.889c0,-15.556 9.444,-26.111 23.333,-26.111c8.334,0 10,5 10,35c0,37.777 -10,59.444 -27.222,59.444c-20.556,0 -39.444,-34.444 -53.333,-98.889c-13.889,-64.444 -13.334,-63.333 -26.667,-53.889c-6.667,4.445 -16.667,8.334 -22.222,8.334c-14.445,0 -50.556,-19.445 -73.334,-39.445c-23.888,-21.111 -29.444,-18.333 -55.555,33.333c-72.222,144.445 -97.222,427.223 -52.222,590.556c16.666,60.556 50.555,121.111 66.666,121.111c7.223,0 21.111,-30.555 27.223,-59.444c2.777,-14.445 7.777,-64.445 10.555,-110c6.111,-89.445 11.667,-116.667 28.333,-137.223c10.556,-12.777 10.556,-12.222 10.556,101.112c0.556,201.111 18.333,336.666 95.556,727.777c43.333,221.111 63.333,336.667 68.888,403.889c2.223,25.556 6.112,46.111 8.889,46.111c16.111,0 67.778,-25.555 79.445,-38.889c31.666,-37.777 32.222,-73.888 3.333,-216.666c-18.333,-90 -20.555,-151.111 -6.667,-185c5.556,-13.334 8.334,-14.445 17.778,-9.445c21.667,11.667 25,26.667 25,119.445c0,96.111 2.778,107.222 30,119.444c11.667,5.556 15,5 21.667,-3.889c16.667,-21.666 30,-62.222 37.778,-115.555c26.666,-178.334 28.889,-187.778 47.777,-224.445c23.334,-45.555 53.334,-70 98.889,-79.444c31.667,-6.111 33.334,-7.222 33.334,-23.333c0,-26.112 -16.667,-148.334 -27.223,-200.556l-9.444,-47.222l29.444,-14.445c34.445,-16.666 53.334,-39.444 62.778,-73.889c8.334,-31.666 3.889,-68.333 -17.222,-144.444c-25,-88.333 -28.333,-107.778 -22.222,-124.444c3.333,-8.334 9.444,-15 14.444,-15c6.667,0 8.334,7.777 8.334,38.888c0,30.556 1.666,40 8.888,42.778c13.889,5.556 20,-6.666 20.556,-41.111c0,-40.555 -11.667,-64.444 -38.889,-77.222l-21.111,-10l0,-81.111c0,-85 -5.556,-117.222 -32.778,-184.445c-30,-73.889 -93.333,-153.333 -162.222,-202.222c-32.778,-23.333 -34.444,-25.555 -30,-41.111c2.778,-8.889 6.667,-41.111 8.333,-72.222l4.445,-55.556l-13.334,0c-7.222,0 -21.666,5 -31.111,11.111Zm202.223,706.111l25,6.667l-2.223,35.556c-1.666,30.555 -4.444,37.777 -19.444,52.777c-14.445,13.889 -23.333,17.778 -47.778,20c-32.778,2.778 -60,-4.444 -80.555,-20c-12.223,-9.444 -12.223,-10.555 -3.889,-34.444c20,-56.667 62.777,-76.667 128.889,-60.556Z" style="fill:#d7d8d8;fill-rule:nonzero;"/><path d="M6894.44,1585.56l0,63.333l14.445,3.333c10.555,2.778 23.333,-0.555 43.333,-10c15.556,-7.778 33.334,-14.444 39.445,-15.555c9.444,-1.667 11.111,-5.556 9.444,-26.667c-3.889,-50 -32.778,-77.778 -80,-77.778l-26.667,0l0,63.334Z" style="fill:#d7d8d8;fill-rule:nonzero;"/><path d="M7977.78,1553.89c-36.111,13.333 -82.778,61.667 -107.222,112.778c-33.334,68.889 -43.889,121.666 -46.667,234.444c-3.333,112.222 4.444,173.889 32.222,256.667c25,75 46.667,112.222 92.222,157.778c33.889,33.333 40.556,43.333 40.556,58.333c0,31.111 16.111,81.667 41.111,128.333c12.778,25 36.667,68.889 52.222,97.778c28.889,54.444 45.556,105.556 45.556,141.111c0,18.889 1.111,20 18.889,20c33.333,0 36.111,-12.222 22.222,-101.667l-3.333,-20.555l133.333,0l6.111,-35c26.667,-156.667 20.556,-265.556 -19.444,-330c-5.556,-8.333 -22.223,-28.889 -37.778,-44.445l-27.778,-29.444l10,-20.556c37.222,-76.666 36.667,-175.555 -2.222,-379.444c-11.667,-62.778 -23.334,-127.778 -25,-144.444c-6.111,-53.334 -6.111,-53.889 -43.334,-74.445c-65,-36.111 -128.888,-45.555 -181.666,-27.222Z" style="fill:#d7d8d8;fill-rule:nonzero;"/><path d="M5483.89,1642.78c-20,40 -16.111,68.889 18.889,139.444c16.666,33.889 30.555,67.778 30.555,75c0,15 -10.555,25.556 -37.777,39.445c-27.223,13.889 -40,28.889 -40,47.777c0,16.667 0.555,16.667 30,16.667c16.666,0 47.222,-5.555 67.777,-11.667c21.111,-6.666 50,-11.666 64.445,-11.666c21.666,0 26.111,-2.222 28.889,-12.222c10.555,-38.889 -2.223,-67.223 -40,-91.667c-15,-9.445 -31.667,-22.222 -37.223,-28.333c-10,-10.556 -9.444,-11.112 2.223,-11.112c6.666,0 20,3.889 28.889,8.889c9.444,4.445 18.333,7.778 19.444,6.667c2.778,-3.333 -34.444,-73.889 -57.222,-108.333c-10.556,-16.667 -30.556,-41.667 -43.334,-56.111l-23.333,-25.556l-12.222,22.778Z" style="fill:#d7d8d8;fill-rule:nonzero;"/><path d="M9738.89,1625c0,1.667 -0.556,48.333 -0.556,103.889c0,116.667 -8.889,101.667 67.223,118.889c55,11.666 102.222,35.555 134.444,67.222c72.778,71.111 69.444,180.556 -9.444,321.667l-21.667,38.333l-5,-23.889c-2.778,-13.333 -8.333,-25.555 -13.333,-27.222c-14.445,-5.556 -28.889,26.667 -46.667,106.667c-12.222,55.555 -18.333,65.555 -34.445,60.555c-9.444,-2.778 -10.555,-1.667 -7.777,9.445c22.222,81.666 25,162.222 6.666,190.555c-15.555,23.333 -31.111,23.889 -78.333,1.111c-56.667,-26.666 -73.333,-26.111 -88.333,2.778c-4.445,8.333 -8.334,16.667 -8.334,18.889c0,1.667 17.223,2.778 37.778,2.778c62.778,0 108.333,30 120.556,78.889l3.889,14.444l-21.667,-7.222c-51.111,-18.334 -100.556,-6.667 -213.889,51.111c-68.889,35.555 -89.444,43.333 -115.556,45c-30.555,2.222 -33.333,1.111 -53.333,-17.222c-27.222,-25 -22.778,-34.445 24.445,-53.889c37.777,-15.556 56.666,-30.556 56.666,-45c0,-7.222 -6.111,-10 -26.111,-11.667c-63.333,-6.111 -147.778,16.667 -216.667,57.778c-82.777,50 -212.777,162.222 -212.777,185c0,20.555 15,57.222 48.889,117.778c29.444,53.333 32.777,56.666 49.444,57.222c17.222,0 50,-20.556 85.556,-53.889c8.888,-8.333 20,-12.778 27.222,-11.667c11.111,1.667 10,3.334 -11.667,19.445c-13.333,9.444 -50,41.111 -81.111,69.444c-31.667,28.889 -65,56.667 -74.444,62.222l-17.223,10l6.667,-11.666c3.333,-6.667 4.444,-14.445 2.778,-17.222c-6.667,-11.112 -23.889,-5 -48.889,17.222c-26.667,23.333 -37.778,47.778 -45.556,100.555c-3.333,23.334 -2.777,24.445 20.556,38.889c13.333,8.334 43.889,33.334 68.333,55c44.445,39.445 92.778,71.667 108.334,71.667c4.444,0 21.111,-8.889 36.111,-20c52.222,-37.222 97.777,-55.556 110,-43.333c1.666,2.222 -0.556,11.111 -5,20c-8.334,16.111 -22.778,24.444 -81.111,45.555c-26.112,9.445 -54.445,28.333 -54.445,36.111c0,7.222 102.222,23.334 122.778,19.445c50.555,-10 65.555,-29.445 52.778,-67.223c-5,-14.444 -8.889,-36.111 -8.889,-48.333l0,-22.778l107.222,-70c142.222,-93.333 240.556,-147.777 316.667,-173.333c5,-2.222 9.444,-8.889 9.444,-15.556c0,-47.777 42.222,-102.222 102.222,-130.555c57.778,-27.778 58.889,-27.222 50,21.111c-3.889,22.222 -17.222,81.667 -28.889,132.222c-33.888,138.334 -36.111,153.889 -36.111,213.889c0,67.222 12.778,106.667 46.667,141.667c18.889,19.444 20.556,22.778 9.444,19.444c-6.666,-2.222 -19.444,-7.778 -27.777,-11.666c-8.334,-4.445 -20.556,-7.778 -26.667,-7.778c-9.444,0 -11.111,2.222 -8.333,12.222c6.666,21.111 26.111,38.889 62.222,55c19.444,8.889 37.222,16.111 40.555,16.111c2.778,0 5.556,-7.222 5.556,-16.667c0,-31.666 28.333,-242.777 41.667,-308.333c20.555,-101.111 38.889,-160.555 72.222,-227.778c30,-61.111 77.778,-124.444 86.667,-115.555c10.555,10.555 27.777,96.666 31.111,151.666c3.333,71.667 -6.667,153.334 -37.223,301.112c-25,118.333 -40,209.444 -35.555,216.666c1.667,2.222 8.889,4.445 15.555,4.445c7.223,0 43.334,15 80,32.777c101.667,50.556 126.667,53.889 160.556,21.667c17.778,-16.667 16.111,-19.444 -10.556,-23.889c-30,-5 -65.555,-20 -89.444,-38.333c-19.444,-15 -52.222,-67.778 -46.111,-74.445c2.222,-1.666 19.444,13.334 38.333,33.334c30.556,32.778 59.445,55 59.445,46.111c0,-1.667 -3.889,-11.667 -8.334,-22.778c-13.889,-33.889 -25,-100 -25,-150.555c0,-57.223 10,-132.223 33.889,-251.667c48.334,-245.556 51.667,-391.111 11.111,-513.333c-7.222,-22.778 -8.333,-31.112 -3.333,-31.112c11.667,0 51.111,-30 74.444,-56.666c20.556,-23.334 22.223,-27.222 17.223,-41.111c-3.334,-8.889 -8.334,-35 -11.667,-58.889c-14.444,-117.222 36.667,-215.556 127.222,-243.334c31.667,-10 84.445,-15 84.445,-8.888c0,1.666 -2.778,9.444 -6.111,18.333c-3.334,8.333 -8.334,37.778 -11.112,65.555c-2.777,27.223 -7.777,62.223 -11.111,76.667c-3.333,14.445 -4.444,28.333 -2.777,30c2.222,2.222 17.777,6.667 35,10c38.888,7.778 47.777,18.333 31.666,40c-16.666,22.222 -33.889,29.445 -72.778,29.445c-53.333,0 -60.555,5.555 -63.888,47.222c-2.223,23.333 -9.445,49.444 -23.889,81.111c-11.667,25.555 -25.556,60.555 -31.667,77.778c-10.556,30 -10.556,32.222 -1.667,51.666c9.445,19.445 55,53.334 62.223,46.111c1.666,-2.222 6.666,-25 10.555,-51.111c4.445,-26.111 12.778,-57.777 18.889,-69.444c10,-20 12.222,-21.667 25.556,-16.667c7.777,3.334 47.222,9.445 87.222,13.889c115.555,13.333 167.222,30 192.778,62.222c11.666,14.445 11.666,15.556 1.666,17.223c-18.333,3.333 -35.555,14.444 -42.778,28.333c-6.666,11.667 -5.555,17.222 4.445,38.889c9.444,21.111 11.667,36.111 11.667,81.111c-0.556,47.778 -4.445,72.222 -29.445,172.222c-29.444,120.556 -43.889,215.556 -35.555,243.889c3.333,12.222 9.444,17.778 26.111,22.778c12.222,3.889 49.444,21.111 83.333,38.889c53.333,27.777 63.333,31.666 85,28.889c37.222,-3.889 38.333,-8.889 13.333,-54.445c-72.777,-135 -90,-346.111 -50.555,-626.111c24.444,-177.778 81.666,-410.556 105.555,-432.222c11.111,-10 11.667,-10 26.111,7.778c17.223,20.555 23.334,21.666 36.112,7.777c12.222,-13.333 11.666,-30.555 -0.556,-41.666c-8.889,-8.334 -13.333,-8.334 -51.667,2.222c-38.889,11.111 -42.777,11.111 -62.222,2.778c-20.555,-8.334 -21.111,-8.889 -13.333,-23.889c4.444,-8.334 16.111,-43.334 25.555,-76.667c19.445,-67.222 39.445,-102.222 63.889,-111.111c15,-5 17.778,-3.333 38.889,20c29.445,32.778 46.667,42.778 51.111,28.889c9.445,-31.111 21.667,-48.333 45,-64.445c36.667,-25 67.222,-53.333 70.556,-63.888c1.111,-5 3.889,-15 6.111,-22.223c2.778,-9.444 1.111,-12.222 -6.667,-12.222c-6.111,0 -23.889,-6.667 -39.444,-14.444c-35.556,-17.778 -59.445,-47.778 -85,-106.111c-10.556,-23.889 -30,-65.556 -43.889,-93.334l-25,-50l-36.111,-12.222c-43.334,-15 -104.445,-16.667 -139.445,-4.444c-53.889,18.888 -86.111,58.333 -147.222,178.333c-23.333,45.555 -44.444,86.111 -47.778,90c-4.444,5 -9.444,0.555 -21.111,-17.222c-35.555,-56.667 -100.555,-76.111 -197.222,-58.889l-34.444,6.111l-57.778,-29.445c-132.222,-66.111 -296.667,-114.444 -538.334,-157.222c-44.444,-8.333 -86.111,-16.111 -92.777,-17.222c-7.223,-1.667 -12.778,-1.667 -12.778,0Zm440.555,122.222c32.223,8.334 88.889,34.445 115.556,53.334l15,10.555l-10.556,20.556c-6.111,12.777 -12.777,44.444 -16.111,79.444c-8.889,90.556 -26.666,123.889 -73.889,140.556l-21.111,7.222l16.667,22.778c25.556,35 39.444,66.111 39.444,87.222c0,22.222 -8.333,47.778 -16.111,47.778c-13.333,0 -41.111,-40.556 -62.222,-90.556c-13.333,-30.555 -30.555,-63.889 -39.444,-73.333c-13.334,-15.556 -14.445,-18.889 -7.778,-27.778c6.667,-9.444 8.333,-8.889 28.889,5c22.222,15 37.778,18.333 43.333,9.444c6.667,-10 -60,-46.666 -143.333,-78.333c-7.778,-2.778 -14.445,-7.778 -14.445,-11.111c0,-12.222 46.111,-37.778 100.556,-55c31.667,-10 58.333,-19.444 59.444,-20c4.445,-3.889 -11.111,-25 -17.777,-25c-4.445,0 -20.556,6.667 -36.112,14.444c-17.777,9.445 -31.666,13.334 -37.777,10.556c-9.445,-3.889 -9.445,-4.444 0.555,-10c26.667,-16.667 32.778,-23.889 28.889,-36.111c-6.667,-19.445 -22.222,-14.445 -47.222,15.555c-18.333,21.667 -27.222,27.778 -40,27.778c-18.889,0 -20,-8.333 -10,-55.555c14.444,-66.111 65,-90.556 145.555,-69.445Zm-227.777,880.556c7.777,6.111 15,16.666 16.111,23.333c2.778,17.778 17.778,25 37.222,17.222c16.111,-5.555 16.111,-5.555 11.111,7.778c-10,27.222 -6.111,50 12.222,65c9.445,7.778 20.556,14.445 25.556,14.445c10.555,0 6.111,13.333 -5.556,15.555c-5,1.111 -26.111,-8.333 -46.666,-21.111c-34.445,-21.111 -40.556,-22.778 -67.223,-20.556c-16.666,1.112 -26.111,0 -22.222,-2.222c3.889,-2.778 12.778,-5 20,-5c19.445,0 21.111,-15 5,-47.222c-25,-48.889 -17.778,-72.778 14.445,-47.222Zm-135,125c-0.556,6.111 -3.889,17.222 -8.334,25c-4.444,7.778 -7.777,19.444 -8.333,26.111l0,12.222l-25,-10.555c-43.889,-18.889 -92.222,-28.889 -145.556,-29.445c-50,-1.111 -51.111,-1.111 -41.111,-11.667c18.889,-18.888 58.889,-25.555 146.111,-23.888c78.334,1.111 82.223,1.666 82.223,12.222Zm-204.445,88.889c9.445,20.555 -5,36.666 -72.222,83.333c-72.778,50.556 -90,67.222 -90,87.778c0,22.222 7.222,32.778 32.778,51.111c12.778,8.333 22.778,17.778 22.778,20.555c0,7.223 -86.112,61.112 -145,91.112c-92.778,46.111 -167.223,66.111 -277.223,72.777l-57.777,3.334l21.666,-18.889c12.222,-10.556 48.889,-42.778 81.111,-72.222c64.445,-58.889 117.778,-100 152.223,-117.778l22.222,-11.111l-20,24.444c-27.778,33.889 -73.334,70 -132.778,104.445c-27.222,16.111 -48.333,31.666 -46.667,34.444c3.889,7.222 45,6.111 59.445,-1.111c6.666,-3.333 37.222,-30.556 67.778,-60.556c65,-63.333 83.888,-75 115.555,-70l21.667,3.889l-15,-18.333c-8.334,-10 -23.334,-36.111 -33.334,-58.333c-10,-21.667 -28.888,-50.556 -41.111,-64.445l-22.777,-24.444l29.444,-3.889c15.556,-1.667 47.778,-3.334 70.556,-3.334c86.111,-0.555 164.444,-18.888 211.111,-50c30.555,-20.555 37.222,-20.555 45.555,-2.777Z" style="fill:#d7d8d8;fill-rule:nonzero;"/><path d="M12191.7,1749.44c-17.223,7.223 -28.889,23.334 -36.111,50.556c-11.667,45 -17.778,50 -57.778,50c-78.334,0 -168.334,-24.444 -284.445,-77.778c-26.111,-12.222 -50,-22.222 -52.777,-22.222c-2.778,0 -5,16.111 -5,35.556c0,35.555 7.777,51.111 17.222,36.111c8.333,-13.334 6.111,5 -2.778,21.666c-10,19.445 -49.444,41.111 -103.333,56.667c-53.889,15.556 -109.445,42.222 -116.667,55.556c-2.778,5.555 -7.778,45 -11.111,87.777c-5.556,80 -10.556,101.111 -36.111,150.556l-14.445,29.444l15,44.445c8.334,24.444 21.667,50.555 28.889,58.333c11.111,12.222 16.111,13.889 41.667,11.667l29.444,-2.222l-10,20c-15.555,31.666 -28.333,98.888 -23.889,130.555c6.112,46.111 36.667,86.111 65.556,86.111c5,0 10,2.222 11.667,5c1.666,2.222 -6.111,41.667 -16.667,87.222c-10.556,45.556 -24.444,108.334 -30.556,140c-10.555,52.778 -10.555,58.334 -2.777,70.556c12.222,18.889 31.111,22.222 80.555,14.444c23.334,-3.333 55.556,-6.111 72.222,-6.111c27.778,0 31.112,1.667 47.223,20c46.111,53.889 51.111,55.556 85.555,22.778c21.111,-20.555 26.667,-16.667 31.667,23.889c5.555,37.778 6.667,40 18.333,33.889c5.556,-2.778 22.778,-7.222 38.889,-9.445c40,-5 90.556,11.667 162.222,54.445c60,35.555 112.223,59.444 129.445,60c8.889,0 9.444,-23.333 9.444,-413.889c0,-360 -1.111,-413.889 -8.333,-413.889c-14.445,0 -20,20.556 -16.111,61.111c2.778,27.222 1.666,38.889 -2.778,38.889c-3.333,0 -17.222,-10.555 -31.111,-23.889c-30.556,-29.444 -32.222,-44.444 -8.333,-98.333c8.888,-20.556 19.444,-50.556 22.777,-66.111c6.667,-30.556 7.778,-32.222 23.889,-20c6.111,4.444 12.778,8.333 15.556,8.333c2.222,0 4.444,-92.778 4.444,-206.667l0,-206.111l-11.666,10.556c-23.334,21.111 -49.445,88.333 -49.445,128.333c0,24.445 -6.111,22.778 -25.555,-4.444c-21.667,-31.667 -20.556,-55.556 5.555,-98.334c25.556,-42.222 25.556,-45 0.556,-35Zm-180,943.334c17.222,53.333 -15.556,185 -46.667,185c-7.778,0 -1.111,-78.889 10,-113.889c4.444,-15.556 10,-44.445 11.667,-65.556c4.444,-41.111 12.222,-43.333 25,-5.555Z" style="fill:#d7d8d8;fill-rule:nonzero;"/><path d="M2300,2058.33c0,32.223 4.444,55.556 18.889,101.667c10.555,32.778 21.111,68.889 22.778,80l3.889,21.111l-21.112,-8.889c-27.222,-11.111 -40.555,-5.555 -65.555,30c-19.445,26.667 -43.333,43.334 -53.889,37.222c-8.333,-5.555 -5.556,-37.222 8.889,-92.222c7.222,-28.333 13.889,-61.666 13.889,-73.333c0,-22.778 -14.445,-53.889 -25.556,-53.889c-8.889,0 -63.333,72.778 -87.222,117.222c-11.111,19.445 -22.778,46.667 -26.111,60c-5.556,21.667 -5,26.111 4.444,39.445c10.556,14.444 10.556,15 0.556,21.111c-13.333,8.333 -25,32.222 -43.889,87.778l-15.556,45.555l16.667,16.111c9.445,8.334 27.778,32.222 41.667,52.778c25.555,38.333 50,63.333 71.666,71.111c10,3.889 12.778,11.667 18.889,50.556c8.889,62.222 32.223,124.444 75.556,200c53.333,93.889 90,170 99.444,207.777c4.445,17.778 8.334,53.889 8.334,79.445c0,45.555 0,46.111 12.777,42.222c33.889,-10 47.778,-43.333 48.334,-111.667c0,-27.777 1.666,-54.444 3.333,-59.444c2.778,-6.667 11.667,-8.889 40,-8.889c89.445,0 148.889,-38.889 173.889,-114.444c12.778,-36.667 13.333,-45.556 13.333,-207.778c0.556,-119.445 2.778,-179.445 7.778,-202.222c5,-22.223 8.889,-30.556 11.667,-25c8.889,16.111 22.778,78.333 36.111,166.111c7.778,49.444 17.778,105 22.778,123.889c9.444,36.666 32.777,87.222 40.555,87.222c5.556,0 8.889,-21.667 17.222,-100c7.223,-68.889 6.667,-137.222 -0.555,-216.667c-23.889,-262.778 -122.778,-435 -275.556,-479.444l-28.889,-8.889l-14.444,16.667c-7.778,9.444 -13.889,23.888 -13.889,32.222c0,22.222 -13.889,37.778 -37.778,42.222c-31.111,5 -47.222,-3.333 -58.889,-31.667c-5.555,-12.777 -13.888,-33.333 -18.888,-45c-8.889,-21.111 -20.556,-31.666 -36.667,-31.666c-7.222,0 -8.889,7.777 -8.889,41.666Z" style="fill:#d7d8d8;fill-rule:nonzero;"/><path d="M8931.11,2340c-5,20.556 -3.889,142.778 2.222,182.222c11.667,71.111 25.556,94.445 28.889,46.111c1.667,-26.666 15.556,-41.666 15.556,-17.222c0,13.333 8.889,26.667 17.778,26.667c7.222,0 5,-50.556 -3.334,-95.556c-7.778,-39.444 -43.333,-141.111 -52.778,-150.555c-2.777,-2.778 -6.111,1.111 -8.333,8.333Z" style="fill:#d7d8d8;fill-rule:nonzero;"/><path d="M3783.33,2585.56c0,18.333 -12.777,26.666 -38.889,26.666l-21.666,-0.555l2.778,62.222c3.888,82.778 16.111,152.222 32.777,193.889c24.445,60 24.445,60 73.889,60c48.889,-0.556 82.222,-6.667 93.889,-18.334c6.111,-6.111 6.667,-12.777 1.667,-33.888c-3.334,-14.445 -10.556,-58.889 -16.667,-99.445c-6.111,-40.555 -15,-87.222 -20,-103.889c-14.444,-50 -46.667,-97.778 -46.667,-69.444c0,13.333 -8.888,9.444 -24.444,-11.111c-17.778,-22.778 -36.667,-26.111 -36.667,-6.111Z" style="fill:#d7d8d8;fill-rule:nonzero;"/><path d="M6963.33,2630c-12.222,12.778 -29.444,21.111 -61.111,30.556c-71.666,20.555 -105,47.777 -80.555,65.555c8.889,6.111 11.666,13.889 11.666,32.778l0,25.555l18.334,-3.888c17.777,-3.889 25,-7.223 89.444,-41.112c17.778,-9.444 37.222,-17.222 42.778,-17.222c9.444,0 9.444,1.111 -1.111,25c-21.111,47.778 -27.222,96.111 -32.778,255.556c-3.333,85.555 -7.222,163.889 -8.889,173.333l-3.333,18.333l37.778,0c78.333,0 141.666,-18.888 160.555,-47.777c8.333,-12.778 8.333,-15.556 -2.778,-44.445c-16.111,-43.889 -21.111,-70.555 -36.111,-185.555c-7.222,-56.667 -17.222,-121.667 -22.778,-144.445c-16.111,-71.111 -44.444,-125 -78.333,-148.889l-15.555,-10.555l-17.223,17.222Z" style="fill:#d7d8d8;fill-rule:nonzero;"/><path d="M7476.67,2753.89c-71.111,76.111 -121.111,239.444 -121.111,397.222c0,51.667 13.333,158.889 24.444,195.556l8.333,27.222l-40,-3.333c-22.222,-2.223 -67.222,-11.667 -101.111,-21.112c-79.444,-22.222 -155,-38.333 -184.444,-38.333c-22.778,0 -23.334,0.556 -29.445,23.333c-15.555,61.112 -22.777,81.667 -34.444,98.889c-11.111,16.667 -17.222,19.445 -48.889,25c-71.667,12.223 -118.333,51.667 -158.889,133.334c-74.444,150.555 -58.333,378.333 33.333,462.777c13.889,12.778 27.778,23.334 30.556,23.334c9.444,0 12.222,-65.556 10.556,-225c-1.667,-133.334 -0.556,-161.111 7.777,-193.334c16.111,-61.111 48.889,-115 87.778,-142.777l16.111,-11.667l21.111,13.889c22.223,15 90.556,42.222 105,42.222c20.556,0 2.778,-20.555 -33.889,-38.889c-38.888,-19.444 -50,-34.444 -26.666,-37.778c19.444,-2.777 103.333,19.445 141.666,37.223c98.889,46.666 164.445,140.555 180,255.555c3.334,25.556 2.778,28.334 -6.666,28.334c-6.111,0 -26.667,-7.778 -45.556,-16.667c-19.444,-9.445 -36.666,-16.667 -37.778,-16.667c-1.666,0 8.334,13.334 21.667,30c30.556,37.778 70,114.445 88.889,172.778c47.778,147.778 66.111,283.889 84.444,622.222c8.334,147.222 17.778,258.334 22.778,263.334c4.445,4.444 76.667,-18.334 107.222,-33.334c40.556,-20.555 85.556,-64.444 81.667,-80c-5.555,-21.111 -31.111,-218.889 -37.222,-286.666c-9.445,-103.334 -3.333,-290 11.111,-347.223c11.667,-48.333 34.444,-103.889 43.889,-110c10.555,-6.666 17.778,17.223 17.778,56.667c0,30.556 2.222,41.667 11.111,51.667c11.111,13.333 11.111,13.333 17.222,2.222c3.333,-6.111 39.444,-43.889 80.556,-83.333c46.666,-45.556 75,-77.778 77.777,-87.778c1.667,-8.334 0.556,-33.889 -2.777,-57.222c-8.889,-60.556 -7.778,-172.778 2.777,-223.334c9.445,-47.222 28.334,-93.889 50,-122.222c7.778,-10 12.778,-20 11.111,-21.667c-1.666,-2.222 -13.333,-0.555 -26.111,3.334c-26.666,7.777 -36.666,3.889 -12.777,-5.556c26.666,-10 72.222,-12.778 91.111,-5c25.555,10.556 30,22.778 19.444,53.889c-7.778,22.222 -8.333,31.667 -2.778,61.111c6.667,33.889 6.111,55.556 -2.222,74.445c-3.333,7.222 2.222,10 28.889,16.111c35.556,7.222 45.556,5 64.444,-16.111c10,-11.112 10,-12.223 -3.888,-46.112c-33.889,-81.666 -41.112,-140 -47.778,-398.888c-5.556,-202.778 -11.667,-258.889 -36.111,-328.889c-32.223,-92.778 -92.223,-147.778 -181.111,-166.111c-17.223,-3.334 -55.556,-5 -88.889,-3.889c-50,2.222 -68.334,6.111 -125,25.555c-86.111,28.889 -96.667,31.111 -133.334,23.334c-36.111,-7.778 -38.333,-15 -10,-37.223c11.667,-10 18.334,-18.889 16.111,-22.777c-6.666,-11.112 -22.777,-7.223 -37.777,8.333Z" style="fill:#d7d8d8;fill-rule:nonzero;"/><path d="M4525,3131.11c-31.111,6.667 -78.889,21.111 -99.444,30l-23.889,10l4.444,37.778c8.889,71.111 51.667,136.667 112.778,173.889c31.111,18.333 31.667,18.333 42.778,8.333c17.222,-15.555 37.777,-52.778 67.222,-120.555l25.555,-60l-13.888,-5.556c-9.445,-3.333 -18.334,-16.111 -30,-41.111l-16.112,-36.111l-29.444,0.555c-15.556,0.556 -33.889,1.667 -40,2.778Z" style="fill:#d7d8d8;fill-rule:nonzero;"/><path d="M1950,3263.89c0,72.222 1.667,91.667 7.222,91.667c12.222,0 82.778,-25.556 112.778,-40.556c30,-15 68.889,-48.333 68.889,-58.333c0,-3.334 -14.445,-8.889 -31.667,-12.223c-45,-9.444 -91.666,-29.444 -123.333,-52.222c-15,-11.111 -28.333,-20 -30.556,-20c-1.666,0 -3.333,41.111 -3.333,91.667Z" style="fill:#d7d8d8;fill-rule:nonzero;"/><path d="M11804.4,3309.44c-7.222,1.667 -10,8.334 -10,24.445c0,12.222 -3.888,31.111 -8.333,42.222c-10,23.889 -10,23.889 -2.222,23.889c3.333,0 31.111,12.222 61.111,27.778c40.556,20.555 60.556,27.778 78.889,27.778c32.778,0 52.778,-18.889 22.222,-21.112c-21.667,-1.666 -37.222,-21.666 -51.111,-66.666c-16.667,-55 -41.667,-71.111 -90.556,-58.334Z" style="fill:#d7d8d8;fill-rule:nonzero;"/><path d="M2428.89,3520.56c-8.889,23.888 -18.333,52.222 -20.556,63.888c-3.333,16.667 -2.222,20.556 7.223,23.334c40.555,13.333 77.222,-61.111 52.777,-107.222c-5.555,-10.556 -12.777,-20 -16.111,-21.112c-3.333,-1.111 -13.889,17.223 -23.333,41.112Z" style="fill:#d7d8d8;fill-rule:nonzero;"/><path d="M9838.89,3596.67c0,44.444 63.333,78.333 108.333,57.777c16.111,-7.222 18.889,-28.333 5.556,-45.555c-7.222,-9.445 -8.334,-9.445 -11.111,-1.667c-7.778,20 -26.667,16.111 -72.778,-15.555c-26.667,-18.334 -30,-17.778 -30,5Z" style="fill:#d7d8d8;fill-rule:nonzero;"/><path d="M6938.89,3626.11c0,7.778 34.444,38.333 55,48.889c57.778,28.889 135.555,34.444 200.555,13.889c37.223,-11.667 54.445,-20 50,-23.889c-1.666,-1.667 -42.777,-6.667 -91.666,-12.222c-80.556,-8.334 -169.445,-21.111 -201.111,-28.889c-7.223,-1.667 -12.778,-0.556 -12.778,2.222Z" style="fill:#d7d8d8;fill-rule:nonzero;"/><path d="M8992.78,3806.67c-3.889,53.333 -14.445,78.889 -60,147.777c-55,81.112 -51.667,100.556 23.889,151.667c18.333,12.222 34.444,26.111 36.111,30.556c5,13.889 -26.111,68.889 -61.667,106.111c-18.333,20.555 -70,64.444 -114.444,97.778c-157.778,120.555 -211.111,196.111 -211.111,301.111c0,33.333 0.555,33.889 18.333,40.555c10.555,3.889 36.667,25.556 58.333,48.334c45,47.222 61.667,55 81.667,36.111c12.222,-11.667 16.111,-12.223 57.778,-8.334c25,2.223 45,5 45,6.111c0,1.112 -6.111,20.556 -13.889,42.778c-7.222,22.778 -33.889,118.889 -57.778,214.445c-54.444,211.111 -72.222,272.222 -104.444,361.666c-43.334,120 -97.223,219.445 -148.889,277.223c-26.667,29.444 -40.556,29.444 -67.223,0.555c-27.777,-30 -35.555,-28.889 -35.555,3.889c0.555,93.889 101.667,163.333 307.222,212.222c71.111,16.667 67.778,18.334 81.111,-31.666c36.667,-137.778 45.556,-222.223 56.111,-554.445c9.445,-277.778 31.111,-398.333 94.445,-524.444c10,-20 22.778,-42.778 28.333,-51.111c6.111,-7.778 10.556,-16.667 10.556,-19.445c0,-2.778 -17.223,-17.222 -38.334,-31.111c-76.666,-52.778 -163.889,-140 -160.555,-161.667c1.111,-5.555 8.333,-15.555 17.222,-22.222c15,-11.111 15.556,-11.111 35,-0.555c11.111,5.555 43.333,31.111 71.667,56.111c52.777,46.111 77.777,63.889 103.889,73.889c14.444,5.555 16.111,3.888 32.222,-25c43.333,-75.556 90.555,-115.556 165.555,-141.112c22.223,-7.777 40,-15 40,-17.222c0,-1.666 -6.111,-6.111 -13.333,-9.444c-7.222,-3.334 -15,-11.111 -17.222,-17.222c-7.222,-23.334 25.555,-61.667 60,-70l15,-3.889l0,-112.223c0,-120 -6.111,-197.777 -19.445,-250.555c-10.555,-41.667 -36.111,-96.111 -56.666,-122.222c-19.445,-24.445 -63.334,-55.556 -95,-66.667c-22.778,-7.778 -26.667,-7.222 -58.334,3.333c-38.889,13.334 -76.111,11.667 -92.222,-2.777c-9.444,-8.889 -10,-7.223 -13.333,31.111Z" style="fill:#d7d8d8;fill-rule:nonzero;"/><path d="M6918.89,4090.56c8.889,42.777 10,73.333 3.333,112.222c-7.222,41.111 -7.222,42.222 6.111,56.666c18.889,20.556 48.889,32.223 129.445,51.667c38.889,8.889 77.222,20.556 85.555,25c14.445,7.778 13.334,7.778 -23.889,7.778c-30.555,0.555 -51.111,-3.889 -93.888,-18.889c-60,-21.111 -89.445,-23.889 -113.889,-11.111c-20.556,10.555 -22.778,17.778 -26.667,83.333c-3.333,66.667 6.111,129.445 34.444,233.334c60,216.111 66.112,251.666 75,458.333c10,231.667 22.778,325 56.112,412.222c16.666,42.778 63.888,121.111 73.333,121.111c7.222,0 30.555,-55.555 43.333,-103.333c16.667,-62.778 20,-198.333 8.334,-355c-10,-140.556 -11.112,-251.111 -2.778,-302.778c6.666,-41.111 27.222,-97.778 35.555,-96.111c9.445,1.667 39.445,61.111 58.889,115c20.556,57.778 39.445,98.333 58.889,123.333c13.333,17.778 59.445,46.111 65.556,40.556c4.444,-5 17.222,-76.111 27.777,-155c30.556,-236.667 8.334,-472.778 -67.222,-710.556l-18.889,-60.555l-60,-3.889c-47.777,-2.778 -252.222,-26.111 -339.444,-38.333c-18.333,-2.778 -18.333,-2.778 -15,15Z" style="fill:#d7d8d8;fill-rule:nonzero;"/><path d="M6180,4211.11c-40,12.778 -68.333,31.111 -79.444,51.111c-7.223,12.778 -7.223,15.556 1.666,28.889l9.445,15l15,-16.111c8.333,-8.889 30,-21.667 48.333,-28.333c36.111,-13.334 63.889,-35.556 63.889,-51.667c0,-12.778 -15,-12.778 -58.889,1.111Z" style="fill:#d7d8d8;fill-rule:nonzero;"/><path d="M2544.44,4267.78c-67.777,77.222 -86.111,122.778 -82.222,208.333l2.222,52.778l-33.333,22.778c-117.778,79.444 -186.667,196.111 -217.778,367.777c-7.777,43.334 -10,83.334 -10,180.556c0.556,136.667 5.556,193.333 41.667,450c33.333,238.333 39.444,298.889 40,406.667l1.111,98.333l33.333,20c83.889,50.556 142.778,140.556 183.334,279.444c7.778,26.667 29.444,121.667 47.778,210.556c32.777,160.556 50,228.889 71.111,285c13.333,34.444 13.333,34.444 -40,113.889c-35.556,52.778 -53.889,100 -53.889,138.889c0,27.778 5,30.555 56.666,30.555c42.223,0 75,-13.333 130.556,-51.666c24.444,-17.223 58.889,-38.334 76.111,-46.111c18.333,-8.334 31.667,-17.778 31.667,-23.334c0.555,-5 0.555,-42.222 -0.556,-81.666c-1.111,-59.445 0.556,-73.889 7.222,-79.445c4.445,-3.889 9.445,-5 11.112,-2.778c6.666,11.111 15,77.778 20.555,162.778c8.333,136.111 15.556,175.556 33.889,192.222c9.444,8.334 11.667,7.223 40,-21.111c33.333,-32.778 59.444,-82.222 73.889,-138.333c12.222,-46.667 16.111,-237.222 8.889,-405c-5,-115 -1.667,-250.556 7.222,-277.778c3.333,-10 5.556,-8.889 31.111,8.889c90.556,65.556 192.778,43.333 352.222,-75c36.667,-27.222 67.223,-48.889 67.223,-48.889c0.555,0.556 6.666,36.667 12.777,80c6.667,43.333 26.667,157.222 44.445,252.778c45.555,242.222 47.778,256.111 40,258.889c-20.556,6.666 -65.556,51.666 -95.556,96.111c-18.889,27.778 -45.555,58.333 -58.333,68.333c-23.889,17.222 -23.889,17.778 -24.445,51.111c0,31.111 1.112,34.445 13.889,40c7.778,3.889 26.667,6.667 42.223,6.667c20.555,0 29.444,2.778 36.666,11.111c12.222,13.889 18.334,13.889 18.334,0.556c0,-21.111 26.666,-43.889 65.555,-56.667c20.556,-6.667 47.222,-17.222 59.445,-22.778l22.222,-11.111l-22.222,23.333c-23.889,25 -47.778,39.445 -84.445,50c-28.889,8.889 -30,14.445 -4.444,21.667c25.555,6.667 45,1.111 77.777,-24.444c24.445,-18.334 29.445,-20 55,-17.778c15.556,1.111 33.889,4.444 40.556,6.667c10,3.333 12.778,1.666 16.111,-11.112c5.556,-23.333 -4.444,-28.888 -31.111,-16.666c-18.333,8.333 -23.889,8.889 -29.444,3.333c-5,-5.555 -3.889,-8.889 7.222,-16.111c7.778,-5.556 33.333,-27.222 56.666,-49.444c27.778,-25.556 50.556,-42.223 63.889,-45.556c25,-7.222 46.111,-7.778 46.111,-2.222c-0.555,6.111 -25.555,55.555 -58.333,115.555c-26.667,47.778 -27.778,51.667 -27.222,91.667c0,27.778 4.444,55 13.333,81.667l13.334,40.555l22.222,-3.333c33.889,-5 102.778,-28.889 131.111,-45c81.111,-47.222 127.222,-116.111 147.778,-223.889c12.222,-60.556 10.555,-213.333 -3.334,-344.444c-22.222,-215 -27.777,-287.778 -27.777,-382.778l0,-97.222l-23.334,-27.223c-41.111,-48.889 -46.666,-88.333 -23.889,-165.555c15,-49.445 14.445,-70 -2.222,-85c-10,-8.889 -12.222,-8.334 -37.222,7.778c-49.445,31.111 -67.778,33.888 -249.445,38.888c-173.333,5 -225,11.112 -261.666,32.778l-17.222,10.556l-7.223,-51.111c-12.777,-96.111 -45.555,-238.889 -57.777,-251.111c-3.334,-3.889 -48.334,-10.556 -100.556,-16.112c-123.333,-11.666 -200.556,-22.777 -255.556,-36.666c-43.333,-11.111 -111.666,-40 -132.777,-56.111c-10,-7.778 -8.889,-8.889 15,-12.223c17.777,-2.777 36.111,-11.666 62.777,-31.666c40,-29.445 59.445,-33.889 86.667,-19.445c10,5.556 16.667,6.111 18.889,2.223c1.667,-2.778 3.333,-70 2.778,-148.889c-0.556,-154.445 3.889,-206.667 22.222,-257.223c13.889,-36.111 51.667,-82.222 77.222,-92.777c8.889,-3.889 16.667,-8.889 16.667,-11.667c0,-2.222 -10.556,-12.222 -23.889,-21.667c-45.556,-32.777 -78.889,-87.777 -124.444,-205.555c-39.445,-102.222 -51.112,-125.556 -66.112,-132.778c-7.777,-3.333 -35,-6.111 -61.111,-6.111c-42.777,0 -48.333,-1.111 -61.111,-13.889c-7.778,-7.778 -15,-13.889 -16.111,-13.889c-3.333,0 -18.333,44.445 -27.222,79.445c-4.445,17.777 -12.222,38.333 -17.222,46.111c-8.889,13.889 -13.889,14.444 -38.334,4.444c-9.444,-3.333 -10,-2.222 -6.666,11.111c5,20 -3.889,22.222 -48.889,12.222c-63.889,-15 -91.667,-34.444 -99.445,-70l-3.333,-13.888l45.556,0c40.555,0 49.444,-2.223 81.666,-18.334c20,-10 58.889,-33.333 87.222,-52.778l51.112,-34.444l0.555,-28.333c0,-40 -12.778,-78.889 -50.555,-152.223c-17.778,-35 -37.223,-75.555 -43.334,-89.444c-12.222,-29.444 -20.555,-32.778 -86.666,-32.778c-42.778,0 -68.889,-6.666 -92.778,-23.333c-7.778,-5.556 -15.556,-10 -16.667,-10c-0.555,0.555 -12.778,13.333 -26.667,28.889Zm98.334,574.444l33.333,3.889l9.445,37.222c5,20.556 8.888,51.667 8.888,68.889c0,32.222 -11.666,70 -21.666,70c-16.111,0 -38.334,-35 -52.222,-82.778c-8.889,-27.777 -21.667,-57.777 -29.445,-67.222c-26.111,-30.555 -15,-36.666 51.667,-30Zm181.111,520.556c45,22.778 83.333,53.889 105.555,85.555c17.223,25 33.889,62.778 27.223,62.778c-6.111,0 -27.223,-20 -30,-28.333c-1.667,-5 -13.334,-3.889 -46.667,5c-80.556,21.666 -147.778,14.444 -216.111,-24.445c-52.778,-29.444 -50,-25 -36.667,-55.555c6.667,-14.445 16.111,-31.667 21.667,-37.778c33.333,-37.778 107.222,-40.556 175,-7.222Zm-30.556,995.555c36.667,107.778 47.223,168.889 47.778,272.223c0.556,68.888 -1.667,99.444 -10,135l-10.555,46.666l-13.334,-21.666c-18.333,-30 -42.778,-96.112 -56.666,-151.667c-17.223,-71.667 -27.223,-151.111 -36.667,-294.445c-4.445,-71.666 -9.445,-145.555 -10.556,-163.888l-2.777,-33.334l35,72.222c19.444,39.445 45.555,102.223 57.777,138.889Z" style="fill:#d7d8d8;fill-rule:nonzero;"/><path d="M3538.89,4268.33c0,15 18.889,32.778 55.555,51.111c42.223,21.112 50,31.112 50,61.112c0,26.666 -10,23.333 -26.666,-8.889c-15.556,-28.334 -20.556,-32.778 -41.111,-32.778c-18.334,0 -18.889,1.111 -4.445,30.555c36.667,75.556 23.334,154.445 -42.778,257.778l-30,46.111l-33.333,-2.222c-46.667,-3.333 -50,-10 -16.111,-31.111c25.556,-16.111 38.889,-34.444 18.889,-26.667c-5,1.667 -23.333,3.334 -40.556,3.334c-24.444,0 -36.666,3.333 -50.555,12.222c-25.556,17.222 -27.222,26.667 -6.111,26.667c22.777,0 26.666,11.111 12.777,38.888l-10.555,22.223l26.667,0c14.444,0 33.333,2.777 41.666,5.555l14.445,5.556l-18.334,12.778c-11.111,7.222 -26.666,26.666 -36.666,45.555c-17.223,32.778 -27.223,42.778 -48.889,49.445c-10.556,3.333 -11.111,0.555 -11.111,-65c0,-60.556 -1.667,-70.556 -13.334,-95.556c-15.555,-31.111 -85.555,-105 -96.111,-101.667c-11.666,3.889 -37.778,61.667 -46.111,102.778c-22.222,103.333 -3.889,192.222 86.667,428.333c40,105 41.111,107.223 45.555,86.112c2.778,-11.667 1.667,-64.445 -1.666,-120c-6.667,-102.778 -4.445,-145 9.444,-173.334c18.333,-36.111 18.333,-36.111 105,-36.111c43.889,0 92.222,-2.778 107.222,-6.111c47.778,-10 77.223,-37.778 86.111,-80.556l3.889,-17.222l-36.666,-3.333c-47.223,-4.445 -51.111,-7.222 -34.445,-25.556c18.889,-20 25.556,-42.777 34.445,-121.666c8.889,-77.223 16.111,-97.223 35.555,-100c11.111,-1.667 12.778,-0.556 8.889,8.333c-20,47.778 -26.111,130 -13.333,176.111c5.555,21.111 26.666,47.778 37.778,47.778c2.777,0 6.666,-13.333 8.888,-29.445c2.223,-15.555 13.889,-60 26.112,-98.333c28.888,-91.667 37.777,-132.778 37.777,-183.333c0,-56.111 -2.777,-63.334 -26.111,-72.222c-11.111,-3.889 -37.222,-23.334 -58.333,-42.778c-21.111,-19.445 -46.667,-39.445 -57.222,-43.889c-23.889,-10 -52.778,-10 -52.778,-0.556Z" style="fill:#d7d8d8;fill-rule:nonzero;"/><path d="M3345.56,4278.33c-30.556,6.111 -83.334,30 -99.445,45c-16.667,15.556 -16.111,26.667 0.556,26.667c23.333,0 21.111,9.444 -5,24.444c-25,15 -36.111,28.334 -36.111,44.445c0,6.667 6.111,8.889 23.888,8.889c35,0 40.556,5.555 32.778,32.222c-8.889,28.333 -8.333,52.222 0.556,64.444c6.666,8.889 8.889,8.889 37.222,-2.222c33.333,-12.778 151.667,-73.333 169.444,-86.666c9.445,-7.223 10,-8.889 2.778,-13.334c-10,-6.111 -3.333,-13.889 8.334,-8.889c14.444,5.556 16.111,19.445 5,51.111c-9.445,27.778 -9.445,30.556 -1.112,38.889c8.334,8.334 10,8.334 24.445,-2.777c7.778,-6.112 19.444,-11.667 25,-11.667c12.778,0 13.333,-9.445 1.667,-38.889c-7.223,-18.333 -7.778,-23.889 -2.223,-30.556c8.334,-10 8.334,-10 -15,-18.888c-18.889,-7.778 -30,-28.889 -37.777,-70c-6.112,-35 -16.667,-51.112 -36.667,-55c-22.778,-4.445 -68.333,-3.334 -98.333,2.777Z" style="fill:#d7d8d8;fill-rule:nonzero;"/><path d="M7337.78,5211.11c-5,3.333 -15,13.333 -21.667,22.778c-11.111,16.111 -11.667,17.778 -3.333,22.778c8.333,4.444 8.889,6.666 1.111,21.111c-8.333,16.111 -8.333,16.666 6.667,20c10.555,2.778 22.777,0 43.888,-11.111c16.112,-8.334 32.223,-13.889 35,-11.667c8.889,5 7.223,17.222 -2.777,25.556c-50.556,41.666 -75,295.555 -38.334,399.444l7.778,22.222l-15,0c-19.444,0 -38.889,13.334 -67.222,45.556c-20,22.778 -22.778,28.889 -22.778,53.333c0,39.445 11.111,61.667 55.556,110.556c21.666,23.333 40.555,48.333 42.222,55.555c3.333,13.334 0.555,39.445 -6.111,60.556c-3.334,10.555 1.111,14.444 33.889,30.555c55.555,27.778 83.333,26.111 159.444,-7.777c43.333,-20 69.445,-27.778 94.445,-30c54.444,-4.445 93.333,-37.223 123.888,-103.889c31.667,-70 23.889,-142.778 -36.666,-329.445c-21.111,-64.444 -40,-130 -42.222,-145c-3.334,-27.778 -3.889,-27.778 -29.445,-34.444c-83.333,-21.111 -138.889,-75 -139.444,-136.667c0,-20.555 -1.667,-23.333 -15,-26.111c-8.889,-2.222 -36.667,-16.111 -62.778,-31.667c-48.333,-28.333 -78.333,-35 -101.111,-22.222Z" style="fill:#d7d8d8;fill-rule:nonzero;"/><path d="M3158.33,5355.56c-14.444,15.555 -7.777,24.444 35,47.222c62.223,32.222 70,42.778 76.667,102.222l3.889,33.889l34.444,0c53.334,0 54.445,-3.889 18.889,-81.667c-20,-43.333 -37.222,-72.778 -52.222,-87.778l-22.222,-22.222l-1.667,20.556c-1.111,11.666 -3.333,21.111 -5.555,21.111c-2.223,0 -12.778,-7.222 -23.334,-15.556c-21.111,-17.222 -40.555,-28.889 -48.889,-28.889c-2.777,0 -9.444,5 -15,11.112Z" style="fill:#d7d8d8;fill-rule:nonzero;"/><path d="M5613.33,5911.67c-32.222,8.889 -55,39.444 -70.555,92.222c-10.556,34.444 -12.222,33.889 56.666,21.667c35.556,-6.667 45.556,-6.112 71.112,1.111c16.111,4.444 31.111,7.222 32.222,5.555c3.889,-3.333 -22.778,-90 -33.889,-111.666c-8.889,-16.112 -22.778,-18.334 -55.556,-8.889Z" style="fill:#d7d8d8;fill-rule:nonzero;"/><path d="M5496.67,6123.89c-95.556,47.222 -101.111,54.444 -185,239.444c-15,33.334 -18.334,37.223 -24.445,28.889c-3.889,-5 -14.444,-10 -23.333,-10.555c-15.556,-1.111 -16.667,0 -15.556,15.555c1.111,11.111 7.223,21.667 19.445,31.667c10,7.778 17.222,15.555 15.555,16.667c-1.666,1.666 -30,22.222 -63.889,45.555c-74.444,53.333 -211.111,158.333 -241.111,185.556c-22.222,20 -22.777,21.666 -31.666,81.666c-4.445,33.889 -8.889,97.223 -8.889,141.667c0,176.667 41.111,303.333 127.222,395c43.889,46.111 71.667,60.556 160,82.222c90.556,22.778 112.778,31.111 225,85.556c107.778,52.778 143.889,65 186.667,65c33.889,0 56.666,-15.556 74.444,-50.556c12.778,-24.444 15,-44.444 4.445,-33.889c-3.889,3.889 -11.112,6.667 -16.112,6.667c-7.777,0 -8.888,-4.444 -6.666,-23.889c2.778,-21.667 0.555,-26.667 -15.556,-45c-10,-11.667 -32.778,-31.111 -50.555,-42.778c-43.889,-30 -70,-53.333 -79.445,-71.666c-6.666,-12.778 -6.666,-19.445 1.667,-47.778c6.667,-24.445 8.889,-55 8.889,-118.889c0,-105.556 -12.778,-166.111 -67.222,-325c-69.445,-202.778 -91.667,-274.444 -88.889,-282.778c4.444,-11.111 56.111,-16.666 114.444,-12.222c26.111,1.667 83.889,12.222 128.333,22.778c84.445,20.555 188.889,34.444 212.778,28.333c20.556,-5 25,-41.667 13.334,-98.889c-9.445,-43.889 -7.778,-58.889 9.444,-91.666l8.889,-17.223l-51.667,-52.222c-27.778,-28.889 -71.111,-73.889 -95.555,-100c-50.556,-54.444 -83.889,-73.889 -138.889,-79.444c-32.778,-3.889 -34.445,-3.334 -106.111,32.222Z" style="fill:#d7d8d8;fill-rule:nonzero;"/><path d="M7395.56,6286.11c-65.556,62.222 -138.334,167.778 -125,181.111c20,20 192.777,28.889 263.333,13.889c40.555,-8.889 85,-28.889 80.555,-36.111c-1.666,-2.778 -11.111,-6.111 -20.555,-8.333c-23.889,-4.445 -52.222,-36.111 -63.889,-71.111c-22.222,-68.889 -57.778,-126.667 -77.778,-126.667c-3.889,0 -29.444,21.111 -56.666,47.222Z" style="fill:#d7d8d8;fill-rule:nonzero;"/><path d="M7638.89,6510c0,2.778 3.889,8.889 9.444,12.778c16.111,13.889 44.445,62.222 58.334,102.222c17.222,47.778 24.444,87.222 35,195c4.444,45.556 10.555,90.556 13.333,100c3.889,15 1.111,20 -38.333,66.111c-47.223,55.556 -85,84.445 -117.223,89.445c-21.666,3.888 -27.777,10 -14.444,15c3.333,1.111 5,4.444 2.778,6.666c-2.778,2.778 -8.889,0.556 -14.445,-4.444c-12.777,-11.667 -25.555,-12.222 -35,-0.556c-6.111,7.778 -5.555,10.556 5,18.889c46.667,37.778 223.889,62.222 302.778,41.667c17.222,-4.445 35,-6.667 38.889,-5c4.444,1.666 12.222,-1.111 17.222,-6.667c8.334,-8.333 8.334,-10 0.556,-18.333c-11.667,-13.334 -10.556,-17.222 7.778,-42.778c8.888,-12.222 18.333,-28.889 20,-37.222c3.888,-13.889 2.222,-16.111 -18.334,-24.445c-14.444,-5.555 -28.889,-17.222 -40,-32.777c-9.444,-13.334 -16.111,-24.445 -15,-24.445c1.667,0 13.334,5 26.667,11.111c42.222,18.889 46.111,16.667 41.667,-25c-8.889,-87.778 -46.112,-194.444 -96.112,-274.444c-30.555,-48.889 -104.444,-126.111 -140.555,-146.111c-30,-17.223 -50,-23.889 -50,-16.667Z" style="fill:#d7d8d8;fill-rule:nonzero;"/></g></svg>