<?xml version="1.0" encoding="UTF-8" standalone="no"?><!DOCTYPE svg PUBLIC "-//W3C//DTD SVG 1.1//EN" "http://www.w3.org/Graphics/SVG/1.1/DTD/svg11.dtd"><svg width="100%" height="100%" viewBox="0 0 2056 367" version="1.1" xmlns="http://www.w3.org/2000/svg" xmlns:xlink="http://www.w3.org/1999/xlink" xml:space="preserve" style="fill-rule:evenodd;clip-rule:evenodd;stroke-linejoin:round;stroke-miterlimit:1.41421;"><g><rect x="38.889" y="88.889" width="277.778" height="277.778" style="fill:#d7d8d8;"/><path d="M322.301,18.875c-10.556,3.334 -26.667,5.556 -36.111,5.556c-34.445,0 -193.334,88.333 -208.334,115.555c-10,18.889 -6.111,18.889 15.556,-0.555c32.222,-29.445 67.222,-51.667 105,-67.778c40.556,-17.222 38.333,-16.667 42.222,-6.667c2.222,6.112 -11.666,15.556 -47.778,33.889c-55,27.778 -170.555,102.223 -170.555,110c0,2.778 -5,11.111 -11.111,18.889c-14.445,18.889 -15,57.222 -1.111,70c5.555,5.556 12.222,9.445 13.889,9.445c2.222,0 8.888,5 15,11.111c6.111,6.111 17.222,11.111 24.444,11.111c10,0 13.889,3.333 15.556,12.222c1.666,12.222 3.888,12.778 44.444,11.111c51.667,-2.222 133.889,-21.111 201.111,-45.555c50.556,-18.334 114.445,-52.223 114.445,-60.556c0,-10.555 -17.778,-10.555 -35,-0.555c-24.445,15 -30,13.888 -11.667,-1.667c10.555,-9.445 13.889,-16.111 11.111,-23.333c-3.333,-9.445 -4.444,-9.445 -16.111,1.111c-36.667,32.222 -83.889,53.333 -153.889,68.889c-64.444,13.888 -71.667,12.777 -23.333,-3.334c41.111,-14.444 95.555,-39.444 95.555,-44.444c0,-1.667 -9.444,1.111 -20.555,6.111c-46.111,20.555 -131.111,39.444 -93.334,21.111c15.556,-7.222 15.556,-7.778 2.223,-5c-41.112,7.778 -93.889,9.444 -93.889,3.333c0,-3.333 5,-6.111 10.555,-6.111c6.111,0 17.778,-2.778 26.667,-6.111c13.889,-5 14.444,-6.667 6.111,-11.111c-6.111,-3.333 -10,-12.222 -10,-22.778c0,-19.444 23.889,-45 69.444,-73.889c42.778,-26.666 136.112,-61.111 127.223,-46.666c-1.667,2.777 -7.778,5 -13.889,5c-5.556,0 -10.556,2.222 -10.556,4.444c0,2.222 13.334,3.333 29.445,2.778c15.555,-1.111 34.444,-2.222 41.666,-1.667c15,0 16.111,-11.111 1.111,-15c-14.444,-3.889 -14.444,-11.666 0.556,-13.889c18.333,-2.777 25.556,-17.777 17.778,-37.222c-5.556,-15 -5,-17.222 4.444,-20c37.222,-12.222 -35.555,-18.889 -78.333,-7.778Z" style="fill:#d80030;fill-rule:nonzero;"/><text x="471.57px" y="183.812px" style="font-family:'RobotoCondensed-Bold', 'Roboto Condensed';font-weight:700;font-size:167.975px;fill:#6e767c;">HOCHSCHULE COBURG</text></g></svg>